Ruda-Regular.ufo
<glyph name="quotesingle" format="2">
  <advance width="195"/>
  <unicode hex="0027"/>
  <outline>
    <contour>
      <point x="70" y="478" type="line"/>
      <point x="123" y="478" type="line"/>
      <point x="139" y="694" type="line"/>
      <point x="139" y="713" type="line"/>
      <point x="56" y="713" type="line"/>
      <point x="56" y="695" type="line"/>
    </contour>
  </outline>
</glyph>
<glyph name="parenright" format="2">
  <advance width="316"/>
  <unicode hex="0029"/>
  <outline>
    <contour>
      <point x="68" y="-124" type="line"/>
      <point x="162" y="-68"/>
      <point x="247" y="59"/>
      <point x="247" y="329" type="curve" smooth="yes"/>
      <point x="247" y="603"/>
      <point x="162" y="727"/>
      <point x="68" y="783" type="curve"/>
      <point x="31" y="730" type="line"/>
      <point x="126" y="670"/>
      <point x="162" y="527"/>
      <point x="162" y="329" type="curve" smooth="yes"/>
      <point x="162" y="133"/>
      <point x="126" y="-11"/>
      <point x="31" y="-72" type="curve"/>
    </contour>
  </outline>
</glyph>
<glyph name="asterisk" format="2">
  <advance width="414"/>
  <unicode hex="002A"/>
  <outline>
    <contour>
      <point x="129" y="374" type="line"/>
      <point x="140" y="389" type="line"/>
      <point x="206" y="493" type="line"/>
      <point x="271" y="389" type="line"/>
      <point x="282" y="374" type="line"/>
      <point x="347" y="429" type="line"/>
      <point x="333" y="443" type="line"/>
      <point x="245" y="527" type="line"/>
      <point x="359" y="546" type="line"/>
      <point x="378" y="552" type="line"/>
      <point x="351" y="635" type="line"/>
      <point x="333" y="628" type="line"/>
      <point x="233" y="578" type="line"/>
      <point x="250" y="688" type="line"/>
      <point x="250" y="707" type="line"/>
      <point x="164" y="707" type="line"/>
      <point x="164" y="688" type="line"/>
      <point x="180" y="578" type="line"/>
      <point x="81" y="628" type="line"/>
      <point x="62" y="635" type="line"/>
      <point x="36" y="552" type="line"/>
      <point x="54" y="546" type="line"/>
      <point x="167" y="527" type="line"/>
      <point x="78" y="443" type="line"/>
      <point x="65" y="429" type="line"/>
    </contour>
  </outline>
</glyph>
<glyph name="plus" format="2">
  <advance width="621"/>
  <unicode hex="002B"/>
  <outline>
    <contour>
      <point x="273" y="32" type="line"/>
      <point x="347" y="32" type="line"/>
      <point x="347" y="258" type="line"/>
      <point x="569" y="258" type="line"/>
      <point x="569" y="328" type="line"/>
      <point x="347" y="328" type="line"/>
      <point x="347" y="553" type="line"/>
      <point x="273" y="553" type="line"/>
      <point x="273" y="328" type="line"/>
      <point x="52" y="328" type="line"/>
      <point x="52" y="258" type="line"/>
      <point x="273" y="258" type="line"/>
    </contour>
  </outline>
</glyph>
<glyph name="hyphen" format="2">
  <advance width="321"/>
  <unicode hex="002D"/>
  <outline>
    <contour>
      <point x="46" y="293" type="line"/>
      <point x="275" y="293" type="line"/>
      <point x="275" y="363" type="line"/>
      <point x="46" y="363" type="line"/>
    </contour>
  </outline>
</glyph>
<glyph name="period" format="2">
  <advance width="254"/>
  <unicode hex="002E"/>
  <outline>
    <contour>
      <point x="76" y="0" type="line"/>
      <point x="178" y="0" type="line"/>
      <point x="178" y="89" type="line"/>
      <point x="76" y="89" type="line"/>
    </contour>
  </outline>
</glyph>
<glyph name="slash" format="2">
  <advance width="430"/>
  <unicode hex="002F"/>
  <outline>
    <contour>
      <point x="4" y="-98" type="line"/>
      <point x="92" y="-98" type="line"/>
      <point x="242" y="288" type="line"/>
      <point x="408" y="695" type="line"/>
      <point x="319" y="695" type="line"/>
      <point x="174" y="319" type="line"/>
    </contour>
  </outline>
</glyph>
<glyph name="zero" format="2">
  <advance width="572"/>
  <unicode hex="0030"/>
  <outline>
    <contour>
      <point x="286" y="-13" type="curve" smooth="yes"/>
      <point x="414" y="-13"/>
      <point x="512" y="56"/>
      <point x="512" y="349" type="curve" smooth="yes"/>
      <point x="512" y="640"/>
      <point x="414" y="708"/>
      <point x="286" y="708" type="curve" smooth="yes"/>
      <point x="159" y="708"/>
      <point x="60" y="640"/>
      <point x="60" y="349" type="curve" smooth="yes"/>
      <point x="60" y="56"/>
      <point x="159" y="-13"/>
    </contour>
    <contour>
      <point x="287" y="63" type="curve" smooth="yes"/>
      <point x="194" y="63"/>
      <point x="147" y="121"/>
      <point x="147" y="351" type="curve" smooth="yes"/>
      <point x="147" y="587"/>
      <point x="197" y="633"/>
      <point x="286" y="633" type="curve" smooth="yes"/>
      <point x="374" y="633"/>
      <point x="426" y="587"/>
      <point x="426" y="349" type="curve" smooth="yes"/>
      <point x="426" y="118"/>
      <point x="378" y="63"/>
    </contour>
  </outline>
</glyph>
<glyph name="three" format="2">
  <advance width="545"/>
  <unicode hex="0033"/>
  <outline>
    <contour>
      <point x="252" y="-13" type="curve" smooth="yes"/>
      <point x="406" y="-13"/>
      <point x="461" y="82"/>
      <point x="461" y="194" type="curve" smooth="yes"/>
      <point x="461" y="330"/>
      <point x="380" y="364"/>
      <point x="328" y="371" type="curve"/>
      <point x="328" y="375" type="line"/>
      <point x="351" y="379"/>
      <point x="440" y="402"/>
      <point x="440" y="533" type="curve" smooth="yes"/>
      <point x="440" y="666"/>
      <point x="348" y="708"/>
      <point x="227" y="708" type="curve" smooth="yes"/>
      <point x="178" y="708"/>
      <point x="108" y="701"/>
      <point x="73" y="692" type="curve"/>
      <point x="83" y="624" type="line"/>
      <point x="157" y="633"/>
      <point x="183" y="636"/>
      <point x="220" y="636" type="curve" smooth="yes"/>
      <point x="276" y="636"/>
      <point x="315" y="629"/>
      <point x="333" y="609" type="curve" smooth="yes"/>
      <point x="346" y="595"/>
      <point x="354" y="565"/>
      <point x="354" y="522" type="curve" smooth="yes"/>
      <point x="354" y="417"/>
      <point x="306" y="415"/>
      <point x="143" y="401" type="curve"/>
      <point x="143" y="335" type="line"/>
      <point x="236" y="335" type="line" smooth="yes"/>
      <point x="329" y="335"/>
      <point x="372" y="299"/>
      <point x="372" y="187" type="curve" smooth="yes"/>
      <point x="372" y="101"/>
      <point x="347" y="62"/>
      <point x="265" y="62" type="curve" smooth="yes"/>
      <point x="177" y="62"/>
      <point x="86" y="101"/>
      <point x="68" y="110" type="curve"/>
      <point x="36" y="46" type="line"/>
      <point x="55" y="36"/>
      <point x="135" y="-13"/>
    </contour>
  </outline>
</glyph>
<glyph name="five" format="2">
  <advance width="509"/>
  <unicode hex="0035"/>
  <outline>
    <contour>
      <point x="243" y="-13" type="curve" smooth="yes"/>
      <point x="372" y="-13"/>
      <point x="452" y="67"/>
      <point x="452" y="205" type="curve" smooth="yes"/>
      <point x="452" y="375"/>
      <point x="329" y="406"/>
      <point x="167" y="413" type="curve"/>
      <point x="196" y="626" type="line"/>
      <point x="421" y="622" type="line"/>
      <point x="421" y="695" type="line"/>
      <point x="126" y="695" type="line"/>
      <point x="75" y="336" type="line"/>
      <point x="75" y="336"/>
      <point x="110" y="338"/>
      <point x="154" y="338" type="curve" smooth="yes"/>
      <point x="243" y="338"/>
      <point x="313" y="330"/>
      <point x="335" y="308" type="curve" smooth="yes"/>
      <point x="354" y="290"/>
      <point x="364" y="239"/>
      <point x="364" y="197" type="curve" smooth="yes"/>
      <point x="364" y="150"/>
      <point x="351" y="94"/>
      <point x="326" y="77" type="curve" smooth="yes"/>
      <point x="312" y="68"/>
      <point x="285" y="62"/>
      <point x="256" y="62" type="curve" smooth="yes"/>
      <point x="163" y="62"/>
      <point x="59" y="123"/>
      <point x="59" y="123" type="curve"/>
      <point x="27" y="60" type="line"/>
      <point x="27" y="60"/>
      <point x="119" y="-13"/>
    </contour>
  </outline>
</glyph>
<glyph name="six" format="2">
  <advance width="552"/>
  <unicode hex="0036"/>
  <outline>
    <contour>
      <point x="281" y="-13" type="curve" smooth="yes"/>
      <point x="411" y="-13"/>
      <point x="492" y="66"/>
      <point x="492" y="210" type="curve" smooth="yes"/>
      <point x="492" y="364"/>
      <point x="400" y="416"/>
      <point x="256" y="416" type="curve" smooth="yes"/>
      <point x="203" y="416"/>
      <point x="150" y="409"/>
      <point x="150" y="409" type="curve"/>
      <point x="155" y="516"/>
      <point x="174" y="570"/>
      <point x="202" y="599" type="curve" smooth="yes"/>
      <point x="224" y="621"/>
      <point x="253" y="632"/>
      <point x="301" y="632" type="curve" smooth="yes"/>
      <point x="368" y="632"/>
      <point x="438" y="611"/>
      <point x="438" y="611" type="curve"/>
      <point x="457" y="682" type="line"/>
      <point x="457" y="682"/>
      <point x="401" y="708"/>
      <point x="318" y="708" type="curve" smooth="yes"/>
      <point x="178" y="708"/>
      <point x="60" y="634"/>
      <point x="60" y="330" type="curve" smooth="yes"/>
      <point x="60" y="75"/>
      <point x="143" y="-13"/>
    </contour>
    <contour>
      <point x="287" y="58" type="curve" smooth="yes"/>
      <point x="228" y="58"/>
      <point x="202" y="74"/>
      <point x="189" y="86" type="curve" smooth="yes"/>
      <point x="176" y="99"/>
      <point x="148" y="137"/>
      <point x="148" y="250" type="curve" smooth="yes"/>
      <point x="148" y="330" type="line"/>
      <point x="148" y="330"/>
      <point x="208" y="344"/>
      <point x="276" y="344" type="curve" smooth="yes"/>
      <point x="384" y="344"/>
      <point x="409" y="309"/>
      <point x="409" y="207" type="curve" smooth="yes"/>
      <point x="409" y="98"/>
      <point x="380" y="58"/>
    </contour>
  </outline>
</glyph>
<glyph name="nine" format="2">
  <advance width="550"/>
  <unicode hex="0039"/>
  <outline>
    <contour>
      <point x="269" y="-13" type="curve" smooth="yes"/>
      <point x="424" y="-13"/>
      <point x="490" y="121"/>
      <point x="490" y="354" type="curve" smooth="yes"/>
      <point x="490" y="625"/>
      <point x="401" y="708"/>
      <point x="269" y="708" type="curve" smooth="yes"/>
      <point x="137" y="708"/>
      <point x="60" y="626"/>
      <point x="60" y="486" type="curve" smooth="yes"/>
      <point x="60" y="341"/>
      <point x="143" y="280"/>
      <point x="267" y="280" type="curve" smooth="yes"/>
      <point x="328" y="280"/>
      <point x="401" y="295"/>
      <point x="401" y="295" type="curve"/>
      <point x="401" y="191"/>
      <point x="376" y="114"/>
      <point x="347" y="83" type="curve" smooth="yes"/>
      <point x="332" y="67"/>
      <point x="313" y="58"/>
      <point x="278" y="58" type="curve" smooth="yes"/>
      <point x="193" y="58"/>
      <point x="110" y="111"/>
      <point x="110" y="111" type="curve"/>
      <point x="79" y="48" type="line"/>
      <point x="79" y="48"/>
      <point x="165" y="-13"/>
    </contour>
    <contour>
      <point x="263" y="356" type="curve" smooth="yes"/>
      <point x="153" y="356"/>
      <point x="143" y="408"/>
      <point x="143" y="483" type="curve" smooth="yes"/>
      <point x="143" y="587"/>
      <point x="162" y="636"/>
      <point x="266" y="636" type="curve" smooth="yes"/>
      <point x="299" y="636"/>
      <point x="329" y="631"/>
      <point x="349" y="620" type="curve" smooth="yes"/>
      <point x="374" y="606"/>
      <point x="401" y="564"/>
      <point x="401" y="380" type="curve" smooth="yes"/>
      <point x="401" y="380"/>
      <point x="338" y="356"/>
    </contour>
  </outline>
</glyph>
<glyph name="semicolon" format="2">
  <advance width="312"/>
  <unicode hex="003B"/>
  <outline>
    <contour>
      <point x="121" y="-166" type="line"/>
      <point x="160" y="-134"/>
      <point x="194" y="-80"/>
      <point x="195" y="14" type="curve" smooth="yes"/>
      <point x="195" y="84" type="line"/>
      <point x="113" y="84" type="line"/>
      <point x="113" y="-36" type="line" smooth="yes"/>
      <point x="113" y="-85"/>
      <point x="103" y="-110"/>
      <point x="81" y="-137" type="curve"/>
    </contour>
    <contour>
      <point x="101" y="459" type="line"/>
      <point x="209" y="459" type="line"/>
      <point x="209" y="548" type="line"/>
      <point x="101" y="548" type="line"/>
    </contour>
  </outline>
</glyph>
<glyph name="greater" format="2">
  <advance width="635"/>
  <unicode hex="003E"/>
  <outline>
    <contour>
      <point x="56" y="16" type="line"/>
      <point x="560" y="257" type="line"/>
      <point x="560" y="328" type="line"/>
      <point x="56" y="568" type="line"/>
      <point x="56" y="484" type="line"/>
      <point x="475" y="296" type="line"/>
      <point x="475" y="290" type="line"/>
      <point x="56" y="99" type="line"/>
    </contour>
  </outline>
</glyph>
<glyph name="G" format="2">
  <advance width="612"/>
  <unicode hex="0047"/>
  <outline>
    <contour>
      <point x="331" y="-13" type="curve" smooth="yes"/>
      <point x="443" y="-13"/>
      <point x="519" y="26"/>
      <point x="519" y="26" type="curve"/>
      <point x="519" y="362" type="line"/>
      <point x="333" y="362" type="line"/>
      <point x="333" y="300" type="line"/>
      <point x="477" y="293" type="line"/>
      <point x="439" y="333" type="line"/>
      <point x="439" y="75" type="line"/>
      <point x="417" y="66"/>
      <point x="381" y="60"/>
      <point x="335" y="60" type="curve" smooth="yes"/>
      <point x="263" y="60"/>
      <point x="230" y="74"/>
      <point x="214" y="92" type="curve" smooth="yes"/>
      <point x="196" y="112"/>
      <point x="162" y="177"/>
      <point x="162" y="352" type="curve" smooth="yes"/>
      <point x="162" y="504"/>
      <point x="187" y="579"/>
      <point x="212" y="605" type="curve" smooth="yes"/>
      <point x="232" y="626"/>
      <point x="271" y="632"/>
      <point x="338" y="632" type="curve" smooth="yes"/>
      <point x="424" y="632"/>
      <point x="479" y="622"/>
      <point x="505" y="619" type="curve"/>
      <point x="515" y="691" type="line"/>
      <point x="483" y="699"/>
      <point x="407" y="708"/>
      <point x="344" y="708" type="curve" smooth="yes"/>
      <point x="181" y="708"/>
      <point x="72" y="647"/>
      <point x="72" y="350" type="curve" smooth="yes"/>
      <point x="72" y="48"/>
      <point x="191" y="-13"/>
    </contour>
  </outline>
</glyph>
<glyph name="K" format="2">
  <advance width="577"/>
  <unicode hex="004B"/>
  <outline>
    <contour>
      <point x="485" y="0" type="line"/>
      <point x="597" y="0" type="line"/>
      <point x="291" y="358" type="line"/>
      <point x="291" y="364" type="line"/>
      <point x="566" y="695" type="line"/>
      <point x="460" y="695" type="line"/>
      <point x="192" y="357" type="line"/>
    </contour>
    <contour>
      <point x="105" y="0" type="line"/>
      <point x="189" y="0" type="line"/>
      <point x="189" y="695" type="line"/>
      <point x="105" y="695" type="line"/>
      <point x="108" y="353" type="line"/>
    </contour>
  </outline>
</glyph>
<glyph name="L" format="2">
  <advance width="446"/>
  <unicode hex="004C"/>
  <anchor x="223" y="348" name="center"/>
  <anchor x="426" y="695" name="topright"/>
  <outline>
    <contour>
      <point x="105" y="0" type="line"/>
      <point x="435" y="0" type="line"/>
      <point x="435" y="74" type="line"/>
      <point x="146" y="72" type="line"/>
      <point x="184" y="34" type="line"/>
      <point x="189" y="695" type="line"/>
      <point x="105" y="695" type="line"/>
    </contour>
  </outline>
</glyph>
<glyph name="R" format="2">
  <advance width="635"/>
  <unicode hex="0052"/>
  <outline>
    <contour>
      <point x="105" y="0" type="line"/>
      <point x="190" y="0" type="line"/>
      <point x="190" y="281" type="line"/>
      <point x="320" y="276" type="line"/>
      <point x="460" y="0" type="line"/>
      <point x="559" y="0" type="line"/>
      <point x="402" y="283" type="line"/>
      <point x="402" y="286" type="line"/>
      <point x="498" y="309"/>
      <point x="550" y="376"/>
      <point x="550" y="492" type="curve" smooth="yes"/>
      <point x="550" y="650"/>
      <point x="464" y="708"/>
      <point x="328" y="708" type="curve" smooth="yes"/>
      <point x="251" y="708"/>
      <point x="137" y="699"/>
      <point x="107" y="695" type="curve"/>
      <point x="110" y="329" type="line"/>
    </contour>
    <contour>
      <point x="338" y="346" type="curve" smooth="yes"/>
      <point x="291" y="346"/>
      <point x="236" y="351"/>
      <point x="189" y="356" type="curve"/>
      <point x="191" y="633" type="line"/>
      <point x="221" y="637"/>
      <point x="285" y="644"/>
      <point x="340" y="644" type="curve" smooth="yes"/>
      <point x="375" y="644"/>
      <point x="407" y="639"/>
      <point x="422" y="630" type="curve" smooth="yes"/>
      <point x="446" y="616"/>
      <point x="461" y="576"/>
      <point x="461" y="493" type="curve" smooth="yes"/>
      <point x="461" y="391"/>
      <point x="436" y="346"/>
    </contour>
  </outline>
</glyph>
<glyph name="U" format="2">
  <advance width="661"/>
  <unicode hex="0055"/>
  <anchor x="422" y="10" name="ogonek"/>
  <anchor x="641" y="695" name="topright"/>
  <outline>
    <contour>
      <point x="330" y="-14" type="curve" smooth="yes"/>
      <point x="475" y="-14"/>
      <point x="556" y="55"/>
      <point x="556" y="311" type="curve" smooth="yes"/>
      <point x="556" y="695" type="line"/>
      <point x="472" y="695" type="line"/>
      <point x="472" y="329" type="line" smooth="yes"/>
      <point x="472" y="91"/>
      <point x="448" y="63"/>
      <point x="330" y="62" type="curve" smooth="yes"/>
      <point x="213" y="62"/>
      <point x="189" y="90"/>
      <point x="189" y="329" type="curve" smooth="yes"/>
      <point x="189" y="695" type="line"/>
      <point x="105" y="695" type="line"/>
      <point x="105" y="302" type="line" smooth="yes"/>
      <point x="105" y="55"/>
      <point x="186" y="-14"/>
    </contour>
  </outline>
</glyph>
<glyph name="V" format="2">
  <advance width="506"/>
  <unicode hex="0056"/>
  <outline>
    <contour>
      <point x="193" y="0" type="line"/>
      <point x="313" y="0" type="line"/>
      <point x="501" y="695" type="line"/>
      <point x="415" y="695" type="line"/>
      <point x="256" y="74" type="line"/>
      <point x="250" y="74" type="line"/>
      <point x="91" y="695" type="line"/>
      <point x="5" y="695" type="line"/>
    </contour>
  </outline>
</glyph>
<glyph name="Y" format="2">
  <advance width="505"/>
  <unicode hex="0059"/>
  <guideline x="406" y="259" angle="0" identifier="5JFQ9OKWyt"/>
  <anchor x="22" y="695" name="topleft"/>
  <outline>
    <contour>
      <point x="210" y="0" type="line"/>
      <point x="295" y="0" type="line"/>
      <point x="292" y="259" type="line"/>
      <point x="489" y="695" type="line"/>
      <point x="398" y="695" type="line"/>
      <point x="256" y="347" type="line"/>
      <point x="250" y="347" type="line"/>
      <point x="107" y="695" type="line"/>
      <point x="16" y="695" type="line"/>
      <point x="213" y="259" type="line"/>
    </contour>
  </outline>
</glyph>
<glyph name="Z" format="2">
  <advance width="529"/>
  <unicode hex="005A"/>
  <outline>
    <contour>
      <point x="27" y="0" type="line"/>
      <point x="489" y="0" type="line"/>
      <point x="489" y="74" type="line"/>
      <point x="127" y="71" type="line"/>
      <point x="127" y="80" type="line"/>
      <point x="475" y="623" type="line"/>
      <point x="475" y="695" type="line"/>
      <point x="47" y="695" type="line"/>
      <point x="47" y="621" type="line"/>
      <point x="378" y="624" type="line"/>
      <point x="378" y="617" type="line"/>
      <point x="27" y="72" type="line"/>
    </contour>
  </outline>
</glyph>
<glyph name="a" format="2">
  <advance width="569"/>
  <unicode hex="0061"/>
  <anchor x="473" y="10" name="ogonek"/>
  <outline>
    <contour>
      <point x="211" y="-13" type="curve" smooth="yes"/>
      <point x="301" y="-13"/>
      <point x="373" y="41"/>
      <point x="401" y="61" type="curve"/>
      <point x="407" y="61" type="line"/>
      <point x="419" y="0" type="line"/>
      <point x="473" y="0" type="line"/>
      <point x="473" y="383" type="line" smooth="yes"/>
      <point x="473" y="510"/>
      <point x="425" y="595"/>
      <point x="290" y="595" type="curve" smooth="yes"/>
      <point x="179" y="595"/>
      <point x="67" y="538"/>
      <point x="67" y="538" type="curve"/>
      <point x="96" y="473" type="line"/>
      <point x="96" y="473"/>
      <point x="204" y="523"/>
      <point x="307" y="523" type="curve" smooth="yes"/>
      <point x="332" y="523"/>
      <point x="357" y="520"/>
      <point x="371" y="501" type="curve" smooth="yes"/>
      <point x="389" y="477"/>
      <point x="390" y="425"/>
      <point x="390" y="358" type="curve"/>
      <point x="284" y="358" type="line" smooth="yes"/>
      <point x="145" y="358"/>
      <point x="54" y="314"/>
      <point x="54" y="172" type="curve" smooth="yes"/>
      <point x="54" y="53"/>
      <point x="118" y="-13"/>
    </contour>
    <contour>
      <point x="225" y="60" type="curve" smooth="yes"/>
      <point x="165" y="60"/>
      <point x="141" y="93"/>
      <point x="141" y="172" type="curve" smooth="yes"/>
      <point x="141" y="220"/>
      <point x="150" y="255"/>
      <point x="168" y="269" type="curve"/>
      <point x="183" y="282"/>
      <point x="222" y="288"/>
      <point x="283" y="288" type="curve" smooth="yes"/>
      <point x="339" y="288"/>
      <point x="373" y="283"/>
      <point x="390" y="281" type="curve"/>
      <point x="390" y="115" type="line"/>
      <point x="363" y="99"/>
      <point x="297" y="60"/>
    </contour>
  </outline>
</glyph>
<glyph name="b" format="2">
  <advance width="576"/>
  <unicode hex="0062"/>
  <outline>
    <contour>
      <point x="305" y="-13" type="curve" smooth="yes"/>
      <point x="405" y="-13"/>
      <point x="506" y="44"/>
      <point x="506" y="301" type="curve" smooth="yes"/>
      <point x="506" y="507"/>
      <point x="441" y="595"/>
      <point x="324" y="595" type="curve" smooth="yes"/>
      <point x="265" y="595"/>
      <point x="206" y="581"/>
      <point x="173" y="573" type="curve"/>
      <point x="173" y="753" type="line"/>
      <point x="90" y="753" type="line"/>
      <point x="90" y="25" type="line"/>
      <point x="148" y="5"/>
      <point x="250" y="-13"/>
    </contour>
    <contour>
      <point x="305" y="61" type="curve" smooth="yes"/>
      <point x="237" y="61"/>
      <point x="195" y="71"/>
      <point x="173" y="77" type="curve"/>
      <point x="173" y="494" type="line"/>
      <point x="198" y="503"/>
      <point x="248" y="521"/>
      <point x="316" y="521" type="curve" smooth="yes"/>
      <point x="347" y="521"/>
      <point x="374" y="515"/>
      <point x="387" y="505" type="curve" smooth="yes"/>
      <point x="407" y="489"/>
      <point x="419" y="431"/>
      <point x="419" y="317" type="curve" smooth="yes"/>
      <point x="419" y="145"/>
      <point x="391" y="94"/>
      <point x="373" y="77" type="curve" smooth="yes"/>
      <point x="359" y="65"/>
      <point x="341" y="61"/>
    </contour>
  </outline>
</glyph>
<glyph name="c" format="2">
  <advance width="518"/>
  <unicode hex="0063"/>
  <outline>
    <contour>
      <point x="300" y="-13" type="curve" smooth="yes"/>
      <point x="406" y="-13"/>
      <point x="477" y="40"/>
      <point x="477" y="40" type="curve"/>
      <point x="451" y="105" type="line"/>
      <point x="451" y="105"/>
      <point x="359" y="59"/>
      <point x="281" y="59" type="curve" smooth="yes"/>
      <point x="248" y="59"/>
      <point x="232" y="67"/>
      <point x="221" y="75" type="curve" smooth="yes"/>
      <point x="196" y="92"/>
      <point x="157" y="144"/>
      <point x="157" y="287" type="curve" smooth="yes"/>
      <point x="157" y="389"/>
      <point x="177" y="468"/>
      <point x="203" y="496" type="curve" smooth="yes"/>
      <point x="222" y="515"/>
      <point x="255" y="522"/>
      <point x="305" y="522" type="curve" smooth="yes"/>
      <point x="368" y="522"/>
      <point x="428" y="512"/>
      <point x="453" y="509" type="curve"/>
      <point x="463" y="579" type="line"/>
      <point x="430" y="587"/>
      <point x="372" y="595"/>
      <point x="321" y="595" type="curve" smooth="yes"/>
      <point x="181" y="595"/>
      <point x="70" y="531"/>
      <point x="70" y="293" type="curve" smooth="yes"/>
      <point x="70" y="75"/>
      <point x="163" y="-13"/>
    </contour>
  </outline>
</glyph>
<glyph name="d" format="2">
  <advance width="581"/>
  <unicode hex="0064"/>
  <anchor x="291" y="291" name="center"/>
  <anchor x="561" y="582" name="topright"/>
  <outline>
    <contour>
      <point x="254" y="-13" type="curve" smooth="yes"/>
      <point x="338" y="-13"/>
      <point x="394" y="40"/>
      <point x="420" y="60" type="curve"/>
      <point x="425" y="60" type="line"/>
      <point x="436" y="0" type="line"/>
      <point x="491" y="0" type="line"/>
      <point x="491" y="753" type="line"/>
      <point x="408" y="753" type="line"/>
      <point x="408" y="572" type="line"/>
      <point x="386" y="581"/>
      <point x="342" y="595"/>
      <point x="277" y="595" type="curve" smooth="yes"/>
      <point x="174" y="595"/>
      <point x="70" y="538"/>
      <point x="70" y="280" type="curve" smooth="yes"/>
      <point x="70" y="78"/>
      <point x="145" y="-13"/>
    </contour>
    <contour>
      <point x="259" y="61" type="curve" smooth="yes"/>
      <point x="234" y="61"/>
      <point x="212" y="64"/>
      <point x="202" y="73" type="curve" smooth="yes"/>
      <point x="189" y="83"/>
      <point x="157" y="112"/>
      <point x="157" y="276" type="curve" smooth="yes"/>
      <point x="157" y="421"/>
      <point x="176" y="475"/>
      <point x="193" y="497" type="curve" smooth="yes"/>
      <point x="207" y="514"/>
      <point x="233" y="521"/>
      <point x="269" y="521" type="curve" smooth="yes"/>
      <point x="328" y="521"/>
      <point x="384" y="504"/>
      <point x="408" y="495" type="curve"/>
      <point x="408" y="113" type="line"/>
      <point x="378" y="94"/>
      <point x="311" y="61"/>
    </contour>
  </outline>
</glyph>
<glyph name="f" format="2">
  <advance width="338"/>
  <unicode hex="0066"/>
  <outline>
    <contour>
      <point x="115" y="0" type="line"/>
      <point x="198" y="0" type="line"/>
      <point x="198" y="481" type="line"/>
      <point x="325" y="481" type="line"/>
      <point x="325" y="548" type="line"/>
      <point x="197" y="548" type="line"/>
      <point x="198" y="675"/>
      <point x="213" y="696"/>
      <point x="267" y="696" type="curve" smooth="yes"/>
      <point x="286" y="696"/>
      <point x="337" y="694"/>
      <point x="337" y="694" type="curve"/>
      <point x="343" y="764" type="line"/>
      <point x="343" y="764"/>
      <point x="307" y="766"/>
      <point x="287" y="766" type="curve" smooth="yes"/>
      <point x="183" y="766"/>
      <point x="116" y="705"/>
      <point x="115" y="548" type="curve"/>
      <point x="50" y="535" type="line"/>
      <point x="50" y="484" type="line"/>
      <point x="115" y="484" type="line"/>
    </contour>
  </outline>
</glyph>
<glyph name="g" format="2">
  <advance width="521"/>
  <unicode hex="0067"/>
  <outline>
    <contour>
      <point x="253" y="-179" type="curve" smooth="yes"/>
      <point x="381" y="-179"/>
      <point x="469" y="-133"/>
      <point x="469" y="-52" type="curve" smooth="yes"/>
      <point x="469" y="-9"/>
      <point x="440" y="35"/>
      <point x="325" y="84" type="curve" smooth="yes"/>
      <point x="248" y="117"/>
      <point x="235" y="120"/>
      <point x="235" y="125" type="curve" smooth="yes"/>
      <point x="235" y="130"/>
      <point x="242" y="166"/>
      <point x="246" y="188" type="curve"/>
      <point x="378" y="188"/>
      <point x="456" y="270"/>
      <point x="456" y="385" type="curve" smooth="yes"/>
      <point x="456" y="445"/>
      <point x="422" y="521"/>
      <point x="422" y="520" type="curve"/>
      <point x="488" y="530" type="line"/>
      <point x="488" y="583" type="line"/>
      <point x="488" y="583"/>
      <point x="345" y="595"/>
      <point x="277" y="595" type="curve" smooth="yes"/>
      <point x="154" y="595"/>
      <point x="47" y="545"/>
      <point x="47" y="382" type="curve" smooth="yes"/>
      <point x="47" y="285"/>
      <point x="106" y="211"/>
      <point x="194" y="194" type="curve"/>
      <point x="178" y="156"/>
      <point x="146" y="81"/>
      <point x="146" y="79" type="curve" smooth="yes"/>
      <point x="146" y="72"/>
      <point x="153" y="72"/>
      <point x="267" y="24" type="curve" smooth="yes"/>
      <point x="375" y="-22"/>
      <point x="394" y="-35"/>
      <point x="394" y="-65" type="curve" smooth="yes"/>
      <point x="394" y="-90"/>
      <point x="375" y="-102"/>
      <point x="300" y="-102" type="curve" smooth="yes"/>
      <point x="226" y="-102"/>
      <point x="146" y="-90"/>
      <point x="71" y="-77" type="curve"/>
      <point x="61" y="-152" type="line"/>
      <point x="61" y="-152"/>
      <point x="146" y="-179"/>
    </contour>
    <contour>
      <point x="251" y="260" type="curve" smooth="yes"/>
      <point x="163" y="260"/>
      <point x="128" y="288"/>
      <point x="128" y="387" type="curve" smooth="yes"/>
      <point x="128" y="498"/>
      <point x="167" y="523"/>
      <point x="261" y="523" type="curve"/>
      <point x="261" y="523"/>
      <point x="350" y="522"/>
      <point x="356" y="516" type="curve"/>
      <point x="364" y="512"/>
      <point x="376" y="463"/>
      <point x="376" y="387" type="curve" smooth="yes"/>
      <point x="376" y="287"/>
      <point x="340" y="260"/>
    </contour>
  </outline>
</glyph>
<glyph name="i" format="2">
  <advance width="295"/>
  <unicode hex="0069"/>
  <outline>
    <contour>
      <point x="106" y="0" type="line"/>
      <point x="189" y="0" type="line"/>
      <point x="189" y="582" type="line"/>
      <point x="106" y="582" type="line"/>
    </contour>
    <contour>
      <point x="97" y="681" type="line"/>
      <point x="199" y="681" type="line"/>
      <point x="199" y="766" type="line"/>
      <point x="97" y="766" type="line"/>
    </contour>
  </outline>
</glyph>
<glyph name="l" format="2">
  <advance width="295"/>
  <unicode hex="006C"/>
  <anchor x="132" y="291" name="center"/>
  <anchor x="243" y="582" name="topright"/>
  <outline>
    <contour>
      <point x="106" y="0" type="line"/>
      <point x="189" y="0" type="line"/>
      <point x="189" y="753" type="line"/>
      <point x="106" y="753" type="line"/>
    </contour>
  </outline>
</glyph>
<glyph name="m" format="2">
  <advance width="917"/>
  <unicode hex="006D"/>
  <outline>
    <contour>
      <point x="101" y="0" type="line"/>
      <point x="184" y="0" type="line"/>
      <point x="184" y="464" type="line"/>
      <point x="211" y="475"/>
      <point x="285" y="516"/>
      <point x="354" y="516" type="curve" smooth="yes"/>
      <point x="372" y="516"/>
      <point x="395" y="513"/>
      <point x="408" y="494" type="curve" smooth="yes"/>
      <point x="423" y="471"/>
      <point x="424" y="434"/>
      <point x="424" y="358" type="curve" smooth="yes"/>
      <point x="424" y="0" type="line"/>
      <point x="507" y="0" type="line"/>
      <point x="507" y="387" type="line" smooth="yes"/>
      <point x="507" y="413"/>
      <point x="505" y="437"/>
      <point x="503" y="459" type="curve"/>
      <point x="515" y="466"/>
      <point x="602" y="516"/>
      <point x="675" y="516" type="curve" smooth="yes"/>
      <point x="690" y="516"/>
      <point x="718" y="514"/>
      <point x="731" y="493" type="curve" smooth="yes"/>
      <point x="746" y="470"/>
      <point x="746" y="417"/>
      <point x="746" y="355" type="curve" smooth="yes"/>
      <point x="746" y="0" type="line"/>
      <point x="829" y="0" type="line"/>
      <point x="829" y="383" type="line" smooth="yes"/>
      <point x="829" y="513"/>
      <point x="799" y="595"/>
      <point x="691" y="595" type="curve" smooth="yes"/>
      <point x="613" y="595"/>
      <point x="544" y="554"/>
      <point x="488" y="520" type="curve"/>
      <point x="470" y="567"/>
      <point x="426" y="595"/>
      <point x="369" y="595" type="curve" smooth="yes"/>
      <point x="290" y="595"/>
      <point x="194" y="539"/>
      <point x="170" y="525" type="curve"/>
      <point x="166" y="525" type="line"/>
      <point x="157" y="582" type="line"/>
      <point x="101" y="582" type="line"/>
    </contour>
  </outline>
</glyph>
<glyph name="o" format="2">
  <advance width="576"/>
  <unicode hex="006F"/>
  <anchor x="288" y="291" name="center"/>
  <anchor x="518" y="10" name="ogonek"/>
  <anchor x="556" y="582" name="topright"/>
  <outline>
    <contour>
      <point x="288" y="-13" type="curve" smooth="yes"/>
      <point x="453" y="-13"/>
      <point x="506" y="103"/>
      <point x="506" y="291" type="curve" smooth="yes"/>
      <point x="506" y="478"/>
      <point x="453" y="595"/>
      <point x="288" y="595" type="curve" smooth="yes"/>
      <point x="122" y="595"/>
      <point x="70" y="478"/>
      <point x="70" y="291" type="curve" smooth="yes"/>
      <point x="70" y="103"/>
      <point x="122" y="-13"/>
    </contour>
    <contour>
      <point x="288" y="59" type="curve" smooth="yes"/>
      <point x="187" y="59"/>
      <point x="154" y="94"/>
      <point x="154" y="291" type="curve" smooth="yes"/>
      <point x="154" y="489"/>
      <point x="187" y="523"/>
      <point x="288" y="523" type="curve" smooth="yes"/>
      <point x="389" y="523"/>
      <point x="421" y="489"/>
      <point x="421" y="291" type="curve" smooth="yes"/>
      <point x="421" y="94"/>
      <point x="389" y="59"/>
    </contour>
  </outline>
</glyph>
<glyph name="r" format="2">
  <advance width="395"/>
  <unicode hex="0072"/>
  <outline>
    <contour>
      <point x="101" y="0" type="line"/>
      <point x="184" y="0" type="line"/>
      <point x="184" y="461" type="line"/>
      <point x="212" y="483"/>
      <point x="275" y="512"/>
      <point x="331" y="512" type="curve"/>
      <point x="345" y="512"/>
      <point x="368" y="510"/>
      <point x="368" y="510" type="curve"/>
      <point x="375" y="590" type="line"/>
      <point x="375" y="590"/>
      <point x="354" y="595"/>
      <point x="334" y="595" type="curve" smooth="yes"/>
      <point x="266" y="595"/>
      <point x="171" y="523"/>
      <point x="171" y="523" type="curve"/>
      <point x="165" y="523" type="line"/>
      <point x="154" y="582" type="line"/>
      <point x="101" y="582" type="line"/>
    </contour>
  </outline>
</glyph>
<glyph name="t" format="2">
  <advance width="364"/>
  <unicode hex="0074"/>
  <anchor x="182" y="291" name="center"/>
  <anchor x="344" y="582" name="topright"/>
  <outline>
    <contour>
      <point x="253" y="-14" type="curve" smooth="yes"/>
      <point x="288" y="-14"/>
      <point x="309" y="-9"/>
      <point x="309" y="-9" type="curve"/>
      <point x="309" y="58" type="line"/>
      <point x="309" y="58"/>
      <point x="287" y="56"/>
      <point x="255" y="56" type="curve" smooth="yes"/>
      <point x="195" y="56"/>
      <point x="194" y="63"/>
      <point x="194" y="174" type="curve" smooth="yes"/>
      <point x="194" y="481" type="line"/>
      <point x="310" y="481" type="line"/>
      <point x="310" y="548" type="line"/>
      <point x="194" y="548" type="line"/>
      <point x="194" y="685" type="line"/>
      <point x="136" y="685" type="line"/>
      <point x="114" y="549" type="line"/>
      <point x="45" y="535" type="line"/>
      <point x="45" y="483" type="line"/>
      <point x="111" y="483" type="line"/>
      <point x="111" y="180" type="line" smooth="yes"/>
      <point x="111" y="16"/>
      <point x="167" y="-14"/>
    </contour>
  </outline>
</glyph>
<glyph name="x" format="2">
  <advance width="491"/>
  <unicode hex="0078"/>
  <outline>
    <contour>
      <point x="17" y="0" type="line"/>
      <point x="113" y="0" type="line"/>
      <point x="237" y="251" type="line"/>
      <point x="242" y="251" type="line"/>
      <point x="369" y="0" type="line"/>
      <point x="466" y="0" type="line"/>
      <point x="291" y="301" type="line"/>
      <point x="463" y="582" type="line"/>
      <point x="369" y="582" type="line"/>
      <point x="245" y="349" type="line"/>
      <point x="240" y="349" type="line"/>
      <point x="113" y="582" type="line"/>
      <point x="19" y="582" type="line"/>
      <point x="191" y="303" type="line"/>
    </contour>
  </outline>
</glyph>
<glyph name="y" format="2">
  <advance width="479"/>
  <unicode hex="0079"/>
  <outline>
    <contour>
      <point x="119" y="-166" type="line"/>
      <point x="207" y="-166" type="line"/>
      <point x="265" y="37" type="line"/>
      <point x="461" y="582" type="line"/>
      <point x="372" y="582" type="line"/>
      <point x="238" y="157" type="line"/>
      <point x="234" y="157" type="line"/>
      <point x="100" y="582" type="line"/>
      <point x="11" y="582" type="line"/>
      <point x="197" y="61" type="line"/>
    </contour>
  </outline>
</glyph>
<glyph name="braceleft" format="2">
  <advance width="417"/>
  <unicode hex="007B"/>
  <outline>
    <contour>
      <point x="333" y="-124" type="curve" smooth="yes"/>
      <point x="383" y="-122" type="line"/>
      <point x="379" y="-56" type="line"/>
      <point x="321" y="-59" type="line" smooth="yes"/>
      <point x="280" y="-59"/>
      <point x="259" y="-42"/>
      <point x="259" y="77" type="curve" smooth="yes"/>
      <point x="259" y="182" type="line" smooth="yes"/>
      <point x="259" y="316"/>
      <point x="180" y="333"/>
      <point x="165" y="335" type="curve"/>
      <point x="165" y="341" type="line"/>
      <point x="182" y="343"/>
      <point x="259" y="363"/>
      <point x="259" y="492" type="curve" smooth="yes"/>
      <point x="259" y="590" type="line" smooth="yes"/>
      <point x="259" y="704"/>
      <point x="277" y="719"/>
      <point x="319" y="719" type="curve" smooth="yes"/>
      <point x="339" y="719"/>
      <point x="379" y="716"/>
      <point x="379" y="716" type="curve"/>
      <point x="383" y="781" type="line"/>
      <point x="383" y="781"/>
      <point x="352" y="784"/>
      <point x="330" y="784" type="curve" smooth="yes"/>
      <point x="238" y="784"/>
      <point x="176" y="732"/>
      <point x="176" y="592" type="curve" smooth="yes"/>
      <point x="176" y="493" type="line" smooth="yes"/>
      <point x="176" y="404"/>
      <point x="150" y="390"/>
      <point x="56" y="376" type="curve"/>
      <point x="56" y="302" type="line"/>
      <point x="153" y="287"/>
      <point x="176" y="275"/>
      <point x="176" y="186" type="curve" smooth="yes"/>
      <point x="176" y="77" type="line" smooth="yes"/>
      <point x="176" y="-65"/>
      <point x="235" y="-124"/>
    </contour>
  </outline>
</glyph>
<glyph name="braceright" format="2">
  <advance width="417"/>
  <unicode hex="007D"/>
  <outline>
    <contour>
      <point x="84" y="-123" type="line" smooth="yes"/>
      <point x="182" y="-125"/>
      <point x="241" y="-65"/>
      <point x="241" y="77" type="curve" smooth="yes"/>
      <point x="241" y="186" type="line" smooth="yes"/>
      <point x="241" y="275"/>
      <point x="264" y="287"/>
      <point x="361" y="302" type="curve"/>
      <point x="361" y="376" type="line"/>
      <point x="267" y="390"/>
      <point x="241" y="404"/>
      <point x="241" y="493" type="curve" smooth="yes"/>
      <point x="241" y="592" type="line" smooth="yes"/>
      <point x="241" y="732"/>
      <point x="179" y="784"/>
      <point x="87" y="784" type="curve" smooth="yes"/>
      <point x="65" y="784"/>
      <point x="34" y="781"/>
      <point x="34" y="781" type="curve"/>
      <point x="38" y="716" type="line"/>
      <point x="38" y="716"/>
      <point x="78" y="719"/>
      <point x="98" y="719" type="curve" smooth="yes"/>
      <point x="140" y="719"/>
      <point x="158" y="704"/>
      <point x="158" y="590" type="curve" smooth="yes"/>
      <point x="158" y="492" type="line" smooth="yes"/>
      <point x="158" y="363"/>
      <point x="235" y="343"/>
      <point x="252" y="341" type="curve"/>
      <point x="252" y="335" type="line"/>
      <point x="237" y="333"/>
      <point x="158" y="316"/>
      <point x="158" y="182" type="curve" smooth="yes"/>
      <point x="158" y="77" type="line" smooth="yes"/>
      <point x="158" y="-42"/>
      <point x="137" y="-59"/>
      <point x="96" y="-58" type="curve" smooth="yes"/>
      <point x="38" y="-56" type="line"/>
      <point x="34" y="-122" type="line"/>
    </contour>
  </outline>
</glyph>
<glyph name="exclamdown" format="2">
  <advance width="268"/>
  <unicode hex="00A1"/>
  <outline>
    <contour>
      <point x="89" y="-112" type="line"/>
      <point x="182" y="-112" type="line"/>
      <point x="168" y="393" type="line"/>
      <point x="103" y="393" type="line"/>
    </contour>
    <contour>
      <point x="80" y="493" type="line"/>
      <point x="188" y="493" type="line"/>
      <point x="188" y="582" type="line"/>
      <point x="80" y="582" type="line"/>
    </contour>
  </outline>
</glyph>
<glyph name="sterling" format="2">
  <advance width="557"/>
  <unicode hex="00A3"/>
  <outline>
    <contour>
      <point x="72" y="0" type="line"/>
      <point x="488" y="0" type="line"/>
      <point x="488" y="77" type="line"/>
      <point x="244" y="75" type="line"/>
      <point x="244" y="346" type="line"/>
      <point x="424" y="346" type="line"/>
      <point x="424" y="411" type="line"/>
      <point x="244" y="411" type="line"/>
      <point x="246" y="511"/>
      <point x="262" y="582"/>
      <point x="284" y="609" type="curve" smooth="yes"/>
      <point x="299" y="627"/>
      <point x="324" y="635"/>
      <point x="372" y="635" type="curve" smooth="yes"/>
      <point x="419" y="635"/>
      <point x="462" y="627"/>
      <point x="494" y="622" type="curve"/>
      <point x="503" y="692" type="line"/>
      <point x="475" y="700"/>
      <point x="427" y="708"/>
      <point x="383" y="708" type="curve" smooth="yes"/>
      <point x="261" y="708"/>
      <point x="163" y="645"/>
      <point x="160" y="411" type="curve"/>
      <point x="72" y="411" type="line"/>
      <point x="72" y="346" type="line"/>
      <point x="160" y="346" type="line"/>
      <point x="160" y="74" type="line"/>
      <point x="72" y="74" type="line"/>
    </contour>
  </outline>
</glyph>
<glyph name="currency" format="2">
  <advance width="649"/>
  <unicode hex="00A4"/>
  <outline>
    <contour>
      <point x="129" y="101" type="line"/>
      <point x="186" y="158" type="line"/>
      <point x="229" y="129"/>
      <point x="279" y="113"/>
      <point x="329" y="113" type="curve" smooth="yes"/>
      <point x="377" y="113"/>
      <point x="425" y="128"/>
      <point x="467" y="155" type="curve"/>
      <point x="524" y="100" type="line"/>
      <point x="580" y="154" type="line"/>
      <point x="523" y="211" type="line"/>
      <point x="547" y="246"/>
      <point x="565" y="290"/>
      <point x="565" y="351" type="curve" smooth="yes"/>
      <point x="565" y="413"/>
      <point x="546" y="457"/>
      <point x="520" y="492" type="curve"/>
      <point x="577" y="548" type="line"/>
      <point x="521" y="603" type="line"/>
      <point x="463" y="546" type="line"/>
      <point x="423" y="572"/>
      <point x="375" y="586"/>
      <point x="329" y="586" type="curve" smooth="yes"/>
      <point x="280" y="586"/>
      <point x="233" y="571"/>
      <point x="191" y="544" type="curve"/>
      <point x="133" y="602" type="line"/>
      <point x="78" y="546" type="line"/>
      <point x="134" y="489" type="line"/>
      <point x="110" y="454"/>
      <point x="92" y="410"/>
      <point x="92" y="351" type="curve" smooth="yes"/>
      <point x="92" y="293"/>
      <point x="109" y="248"/>
      <point x="132" y="214" type="curve"/>
      <point x="75" y="157" type="line"/>
    </contour>
    <contour>
      <point x="329" y="187" type="curve" smooth="yes"/>
      <point x="237" y="187"/>
      <point x="172" y="233"/>
      <point x="172" y="350" type="curve" smooth="yes"/>
      <point x="172" y="466"/>
      <point x="237" y="512"/>
      <point x="329" y="512" type="curve" smooth="yes"/>
      <point x="421" y="512"/>
      <point x="485" y="466"/>
      <point x="485" y="350" type="curve" smooth="yes"/>
      <point x="485" y="233"/>
      <point x="438" y="187"/>
    </contour>
  </outline>
</glyph>
<glyph name="yen" format="2">
  <advance width="544"/>
  <unicode hex="00A5"/>
  <outline>
    <contour>
      <point x="47" y="270" type="line"/>
      <point x="494" y="270" type="line"/>
      <point x="494" y="336" type="line"/>
      <point x="344" y="336" type="line"/>
      <point x="516" y="695" type="line"/>
      <point x="422" y="695" type="line"/>
      <point x="274" y="337" type="line"/>
      <point x="268" y="337" type="line"/>
      <point x="119" y="695" type="line"/>
      <point x="25" y="695" type="line"/>
      <point x="196" y="336" type="line"/>
      <point x="47" y="336" type="line"/>
    </contour>
    <contour>
      <point x="228" y="0" type="line"/>
      <point x="311" y="0" type="line"/>
      <point x="311" y="146" type="line"/>
      <point x="494" y="146" type="line"/>
      <point x="494" y="212" type="line"/>
      <point x="47" y="212" type="line"/>
      <point x="47" y="146" type="line"/>
      <point x="228" y="146" type="line"/>
    </contour>
  </outline>
</glyph>
<glyph name="dieresis" format="2">
  <advance width="285"/>
  <unicode hex="00A8"/>
  <outline>
    <contour>
      <point x="0" y="684" type="line"/>
      <point x="99" y="684" type="line"/>
      <point x="99" y="766" type="line"/>
      <point x="0" y="766" type="line"/>
    </contour>
    <contour>
      <point x="187" y="684" type="line"/>
      <point x="285" y="684" type="line"/>
      <point x="285" y="766" type="line"/>
      <point x="187" y="766" type="line"/>
    </contour>
  </outline>
</glyph>
<glyph name="logicalnot" format="2">
  <advance width="587"/>
  <unicode hex="00AC"/>
  <outline>
    <contour>
      <point x="470" y="117" type="line"/>
      <point x="543" y="117" type="line"/>
      <point x="543" y="330" type="line"/>
      <point x="28" y="330" type="line"/>
      <point x="28" y="257" type="line"/>
      <point x="470" y="257" type="line"/>
    </contour>
  </outline>
</glyph>
<glyph name="macron" format="2">
  <advance width="320"/>
  <unicode hex="00AF"/>
  <outline>
    <contour>
      <point x="0" y="690" type="line"/>
      <point x="320" y="690" type="line"/>
      <point x="320" y="755" type="line"/>
      <point x="0" y="755" type="line"/>
    </contour>
  </outline>
</glyph>
<glyph name="twosuperior" format="2">
  <advance width="370"/>
  <unicode hex="00B2"/>
  <outline>
    <contour>
      <point x="55" y="298" type="line"/>
      <point x="305" y="298" type="line"/>
      <point x="305" y="357" type="line"/>
      <point x="145" y="353" type="line"/>
      <point x="145" y="357" type="line"/>
      <point x="235" y="467" type="line" smooth="yes"/>
      <point x="286" y="530"/>
      <point x="298" y="562"/>
      <point x="298" y="603" type="curve" smooth="yes"/>
      <point x="298" y="666"/>
      <point x="249" y="703"/>
      <point x="185" y="703" type="curve" smooth="yes"/>
      <point x="125" y="703"/>
      <point x="68" y="673"/>
      <point x="50" y="658" type="curve"/>
      <point x="76" y="606" type="line"/>
      <point x="109" y="626"/>
      <point x="147" y="643"/>
      <point x="192" y="643" type="curve" smooth="yes"/>
      <point x="222" y="643"/>
      <point x="234" y="626"/>
      <point x="234" y="602" type="curve" smooth="yes"/>
      <point x="234" y="573"/>
      <point x="219" y="541"/>
      <point x="150" y="460" type="curve" smooth="yes"/>
      <point x="55" y="348" type="line"/>
    </contour>
  </outline>
</glyph>
<glyph name="mu" format="2">
  <advance width="601"/>
  <unicode hex="00B5"/>
  <outline>
    <contour>
      <point x="88" y="-166" type="line"/>
      <point x="172" y="-166" type="line"/>
      <point x="164" y="2" type="line"/>
      <point x="168" y="5" type="line"/>
      <point x="191" y="-8"/>
      <point x="214" y="-13"/>
      <point x="244" y="-13" type="curve" smooth="yes"/>
      <point x="311" y="-13"/>
      <point x="406" y="43"/>
      <point x="428" y="56" type="curve"/>
      <point x="434" y="56" type="line"/>
      <point x="444" y="0" type="line"/>
      <point x="500" y="0" type="line"/>
      <point x="500" y="582" type="line"/>
      <point x="416" y="582" type="line"/>
      <point x="416" y="117" type="line"/>
      <point x="398" y="108"/>
      <point x="311" y="64"/>
      <point x="251" y="64" type="curve" smooth="yes"/>
      <point x="212" y="64"/>
      <point x="195" y="73"/>
      <point x="185" y="89" type="curve" smooth="yes"/>
      <point x="174" y="109"/>
      <point x="172" y="149"/>
      <point x="172" y="225" type="curve" smooth="yes"/>
      <point x="172" y="582" type="line"/>
      <point x="88" y="582" type="line"/>
    </contour>
  </outline>
</glyph>
<glyph name="paragraph" format="2">
  <advance width="658"/>
  <unicode hex="00B6"/>
  <outline>
    <contour>
      <point x="265" y="-154" type="line"/>
      <point x="349" y="-154" type="line"/>
      <point x="349" y="621" type="line"/>
      <point x="476" y="621" type="line"/>
      <point x="476" y="-154" type="line"/>
      <point x="560" y="-154" type="line"/>
      <point x="560" y="695" type="line"/>
      <point x="265" y="695" type="line" smooth="yes"/>
      <point x="131" y="695"/>
      <point x="49" y="637"/>
      <point x="49" y="445" type="curve" smooth="yes"/>
      <point x="49" y="253"/>
      <point x="132" y="194"/>
      <point x="265" y="194" type="curve"/>
    </contour>
  </outline>
</glyph>
<glyph name="cedilla" format="2">
  <advance width="182"/>
  <unicode hex="00B8"/>
  <outline>
    <contour>
      <point x="73" y="-179" type="curve" smooth="yes"/>
      <point x="136" y="-179"/>
      <point x="182" y="-141"/>
      <point x="182" y="-79" type="curve" smooth="yes"/>
      <point x="182" y="-47"/>
      <point x="170" y="-8"/>
      <point x="163" y="10" type="curve"/>
      <point x="104" y="6" type="line"/>
      <point x="109" y="-13"/>
      <point x="118" y="-48"/>
      <point x="118" y="-82" type="curve" smooth="yes"/>
      <point x="118" y="-109"/>
      <point x="104" y="-113"/>
      <point x="64" y="-113" type="curve" smooth="yes"/>
      <point x="44" y="-113"/>
      <point x="0" y="-108"/>
      <point x="0" y="-108" type="curve"/>
      <point x="0" y="-170" type="line"/>
      <point x="0" y="-170"/>
      <point x="37" y="-179"/>
    </contour>
  </outline>
</glyph>
<glyph name="onehalf" format="2">
  <advance width="909"/>
  <unicode hex="00BD"/>
  <outline>
    <contour>
      <point x="252" y="-9" type="line"/>
      <point x="327" y="-9" type="line"/>
      <point x="491" y="351" type="line"/>
      <point x="668" y="733" type="line"/>
      <point x="594" y="733" type="line"/>
      <point x="438" y="382" type="line"/>
    </contour>
    <contour>
      <point x="64" y="298" type="line"/>
      <point x="321" y="298" type="line"/>
      <point x="321" y="356" type="line"/>
      <point x="233" y="356" type="line"/>
      <point x="233" y="697" type="line"/>
      <point x="161" y="702" type="line"/>
      <point x="39" y="609" type="line"/>
      <point x="75" y="563" type="line"/>
      <point x="161" y="636" type="line"/>
      <point x="165" y="636" type="line"/>
      <point x="165" y="356" type="line"/>
      <point x="64" y="356" type="line"/>
    </contour>
    <contour>
      <point x="594" y="0" type="line"/>
      <point x="844" y="0" type="line"/>
      <point x="844" y="59" type="line"/>
      <point x="683" y="55" type="line"/>
      <point x="683" y="59" type="line"/>
      <point x="683" y="59"/>
      <point x="745" y="130"/>
      <point x="773" y="167" type="curve" smooth="yes"/>
      <point x="806" y="211"/>
      <point x="837" y="261"/>
      <point x="837" y="305" type="curve" smooth="yes"/>
      <point x="837" y="368"/>
      <point x="788" y="405"/>
      <point x="717" y="405" type="curve" smooth="yes"/>
      <point x="664" y="405"/>
      <point x="607" y="375"/>
      <point x="589" y="360" type="curve"/>
      <point x="615" y="308" type="line"/>
      <point x="648" y="328"/>
      <point x="686" y="345"/>
      <point x="731" y="345" type="curve" smooth="yes"/>
      <point x="761" y="345"/>
      <point x="773" y="328"/>
      <point x="773" y="304" type="curve" smooth="yes"/>
      <point x="773" y="263"/>
      <point x="733" y="214"/>
      <point x="694" y="165" type="curve" smooth="yes"/>
      <point x="657" y="119"/>
      <point x="594" y="51"/>
      <point x="594" y="51" type="curve"/>
    </contour>
  </outline>
</glyph>
<glyph name="questiondown" format="2">
  <advance width="463"/>
  <unicode hex="00BF"/>
  <outline>
    <contour>
      <point x="313" y="391" type="line"/>
      <point x="243" y="391" type="line"/>
      <point x="243" y="320"/>
      <point x="195" y="285"/>
      <point x="145" y="247" type="curve" smooth="yes"/>
      <point x="89" y="205"/>
      <point x="31" y="159"/>
      <point x="31" y="57" type="curve" smooth="yes"/>
      <point x="31" y="-49"/>
      <point x="112" y="-126"/>
      <point x="230" y="-126" type="curve" smooth="yes"/>
      <point x="331" y="-126"/>
      <point x="399" y="-82"/>
      <point x="432" y="-63" type="curve"/>
      <point x="402" y="5" type="line"/>
      <point x="351" y="-22"/>
      <point x="290" y="-49"/>
      <point x="214" y="-49" type="curve" smooth="yes"/>
      <point x="183" y="-49"/>
      <point x="163" y="-40"/>
      <point x="158" y="-36" type="curve" smooth="yes"/>
      <point x="138" y="-20"/>
      <point x="118" y="4"/>
      <point x="118" y="49" type="curve" smooth="yes"/>
      <point x="118" y="127"/>
      <point x="165" y="161"/>
      <point x="212" y="197" type="curve" smooth="yes"/>
      <point x="262" y="236"/>
      <point x="313" y="278"/>
      <point x="313" y="381" type="curve" smooth="yes"/>
    </contour>
    <contour>
      <point x="331" y="582" type="line"/>
      <point x="223" y="582" type="line"/>
      <point x="223" y="493" type="line"/>
      <point x="331" y="493" type="line"/>
    </contour>
  </outline>
</glyph>
<glyph name="Iacute" format="2">
  <advance width="295"/>
  <unicode hex="00CD"/>
  <outline>
    <contour>
      <point x="71" y="736" type="line"/>
      <point x="292" y="794" type="line"/>
      <point x="264" y="869" type="line"/>
      <point x="53" y="789" type="line"/>
    </contour>
    <component base="I"/>
  </outline>
</glyph>
<glyph name="multiply" format="2">
  <advance width="575"/>
  <unicode hex="00D7"/>
  <outline>
    <contour>
      <point x="106" y="63" type="line"/>
      <point x="288" y="245" type="line"/>
      <point x="469" y="65" type="line"/>
      <point x="519" y="116" type="line"/>
      <point x="339" y="296" type="line"/>
      <point x="521" y="478" type="line"/>
      <point x="469" y="531" type="line"/>
      <point x="286" y="348" type="line"/>
      <point x="106" y="529" type="line"/>
      <point x="56" y="478" type="line"/>
      <point x="236" y="298" type="line"/>
      <point x="54" y="116" type="line"/>
    </contour>
  </outline>
</glyph>
<glyph name="Thorn" format="2">
  <advance width="595"/>
  <unicode hex="00DE"/>
  <outline>
    <contour>
      <point x="103" y="0" type="line"/>
      <point x="187" y="0" type="line"/>
      <point x="186" y="143" type="line"/>
      <point x="215" y="141"/>
      <point x="278" y="137"/>
      <point x="313" y="137" type="curve" smooth="yes"/>
      <point x="422" y="137"/>
      <point x="532" y="185"/>
      <point x="532" y="379" type="curve" smooth="yes"/>
      <point x="532" y="534"/>
      <point x="461" y="611"/>
      <point x="337" y="611" type="curve" smooth="yes"/>
      <point x="286" y="611"/>
      <point x="232" y="607"/>
      <point x="186" y="604" type="curve"/>
      <point x="187" y="695" type="line"/>
      <point x="103" y="695" type="line"/>
      <point x="106" y="325" type="line"/>
    </contour>
    <contour>
      <point x="324" y="208" type="curve" smooth="yes"/>
      <point x="266" y="208"/>
      <point x="207" y="216"/>
      <point x="185" y="221" type="curve"/>
      <point x="185" y="536" type="line"/>
      <point x="213" y="541"/>
      <point x="270" y="547"/>
      <point x="321" y="547" type="curve" smooth="yes"/>
      <point x="356" y="547"/>
      <point x="392" y="540"/>
      <point x="407" y="531" type="curve" smooth="yes"/>
      <point x="422" y="522"/>
      <point x="443" y="494"/>
      <point x="443" y="389" type="curve" smooth="yes"/>
      <point x="443" y="305"/>
      <point x="436" y="250"/>
      <point x="412" y="227" type="curve" smooth="yes"/>
      <point x="396" y="212"/>
      <point x="368" y="208"/>
    </contour>
  </outline>
</glyph>
<glyph name="germandbls" format="2">
  <advance width="615"/>
  <unicode hex="00DF"/>
  <outline>
    <contour>
      <point x="340" y="-13" type="curve" smooth="yes"/>
      <point x="470" y="-13"/>
      <point x="539" y="71"/>
      <point x="539" y="195" type="curve" smooth="yes"/>
      <point x="539" y="335"/>
      <point x="449" y="371"/>
      <point x="401" y="376" type="curve"/>
      <point x="401" y="379" type="line"/>
      <point x="424" y="380"/>
      <point x="498" y="428"/>
      <point x="498" y="531" type="curve" smooth="yes"/>
      <point x="498" y="646"/>
      <point x="406" y="709"/>
      <point x="302" y="709" type="curve" smooth="yes"/>
      <point x="194" y="709"/>
      <point x="105" y="642"/>
      <point x="105" y="491" type="curve" smooth="yes"/>
      <point x="105" y="0" type="line"/>
      <point x="189" y="0" type="line"/>
      <point x="189" y="492" type="line" smooth="yes"/>
      <point x="189" y="597"/>
      <point x="216" y="646"/>
      <point x="302" y="646" type="curve" smooth="yes"/>
      <point x="356" y="646"/>
      <point x="412" y="627"/>
      <point x="412" y="526" type="curve" smooth="yes"/>
      <point x="412" y="441"/>
      <point x="373" y="407"/>
      <point x="285" y="398" type="curve"/>
      <point x="285" y="339" type="line"/>
      <point x="311" y="339" type="line" smooth="yes"/>
      <point x="423" y="339"/>
      <point x="451" y="283"/>
      <point x="451" y="191" type="curve" smooth="yes"/>
      <point x="451" y="87"/>
      <point x="415" y="53"/>
      <point x="335" y="53" type="curve" smooth="yes"/>
      <point x="316" y="53"/>
      <point x="290" y="55"/>
      <point x="267" y="60" type="curve"/>
      <point x="257" y="-3" type="line"/>
      <point x="271" y="-6"/>
      <point x="302" y="-13"/>
    </contour>
  </outline>
</glyph>
<glyph name="thorn" format="2">
  <advance width="591"/>
  <unicode hex="00FE"/>
  <outline>
    <contour>
      <point x="105" y="-166" type="line"/>
      <point x="184" y="-166" type="line"/>
      <point x="184" y="3" type="line"/>
      <point x="233" y="-6"/>
      <point x="285" y="-13"/>
      <point x="316" y="-13" type="curve" smooth="yes"/>
      <point x="418" y="-13"/>
      <point x="521" y="44"/>
      <point x="521" y="293" type="curve" smooth="yes"/>
      <point x="521" y="507"/>
      <point x="458" y="595"/>
      <point x="341" y="595" type="curve" smooth="yes"/>
      <point x="280" y="595"/>
      <point x="204" y="580"/>
      <point x="184" y="571" type="curve"/>
      <point x="184" y="753" type="line"/>
      <point x="105" y="753" type="line"/>
    </contour>
    <contour>
      <point x="315" y="60" type="curve" smooth="yes"/>
      <point x="264" y="60"/>
      <point x="224" y="70"/>
      <point x="184" y="78" type="curve"/>
      <point x="184" y="494" type="line"/>
      <point x="224" y="506"/>
      <point x="267" y="521"/>
      <point x="332" y="521" type="curve" smooth="yes"/>
      <point x="361" y="521"/>
      <point x="389" y="515"/>
      <point x="402" y="505" type="curve" smooth="yes"/>
      <point x="422" y="489"/>
      <point x="434" y="439"/>
      <point x="434" y="298" type="curve" smooth="yes"/>
      <point x="434" y="155"/>
      <point x="406" y="93"/>
      <point x="388" y="76" type="curve" smooth="yes"/>
      <point x="374" y="64"/>
      <point x="358" y="60"/>
    </contour>
  </outline>
</glyph>
<glyph name="Itilde" format="2">
  <advance width="295"/>
  <unicode hex="0128"/>
  <outline>
    <contour>
      <point x="224" y="746" type="curve" smooth="yes"/>
      <point x="270" y="746"/>
      <point x="296" y="772"/>
      <point x="296" y="847" type="curve"/>
      <point x="243" y="854" type="line"/>
      <point x="243" y="854"/>
      <point x="230" y="812"/>
      <point x="217" y="812" type="curve" smooth="yes"/>
      <point x="197" y="812"/>
      <point x="118" y="857"/>
      <point x="73" y="857" type="curve" smooth="yes"/>
      <point x="27" y="857"/>
      <point x="0" y="832"/>
      <point x="0" y="756" type="curve"/>
      <point x="52" y="750" type="line"/>
      <point x="52" y="750"/>
      <point x="66" y="792"/>
      <point x="79" y="792" type="curve" smooth="yes"/>
      <point x="98" y="792"/>
      <point x="180" y="746"/>
    </contour>
    <component base="I"/>
  </outline>
</glyph>
<glyph name="itilde" format="2">
  <advance width="295"/>
  <unicode hex="0129"/>
  <outline>
    <contour>
      <point x="234" y="666" type="curve" smooth="yes"/>
      <point x="274" y="666"/>
      <point x="295" y="692"/>
      <point x="295" y="766" type="curve"/>
      <point x="243" y="773" type="line"/>
      <point x="243" y="773"/>
      <point x="230" y="728"/>
      <point x="221" y="728" type="curve" smooth="yes"/>
      <point x="203" y="728"/>
      <point x="101" y="776"/>
      <point x="63" y="776" type="curve" smooth="yes"/>
      <point x="23" y="776"/>
      <point x="0" y="751"/>
      <point x="0" y="676" type="curve"/>
      <point x="52" y="670" type="line"/>
      <point x="52" y="670"/>
      <point x="65" y="716"/>
      <point x="75" y="716" type="curve" smooth="yes"/>
      <point x="92" y="716"/>
      <point x="196" y="666"/>
    </contour>
    <component base="dotlessi"/>
  </outline>
</glyph>
<glyph name="Jcircumflex" format="2">
  <advance width="316"/>
  <unicode hex="0134"/>
  <outline>
    <contour>
      <point x="65" y="733" type="line"/>
      <point x="175" y="794" type="line"/>
      <point x="182" y="794" type="line"/>
      <point x="292" y="733" type="line"/>
      <point x="318" y="773" type="line"/>
      <point x="204" y="866" type="line"/>
      <point x="153" y="866" type="line"/>
      <point x="39" y="773" type="line"/>
    </contour>
    <component base="J"/>
  </outline>
</glyph>
<glyph name="kgreenlandic" format="2">
  <advance width="522"/>
  <unicode hex="0138"/>
  <outline>
    <contour>
      <point x="423" y="0" type="line"/>
      <point x="151" y="344" type="line"/>
      <point x="149" y="285" type="line"/>
      <point x="406" y="582" type="line"/>
      <point x="513" y="582" type="line"/>
      <point x="268" y="319" type="line"/>
      <point x="268" y="314" type="line"/>
      <point x="531" y="0" type="line"/>
    </contour>
    <contour>
      <point x="90" y="0" type="line"/>
      <point x="173" y="0" type="line"/>
      <point x="173" y="506" type="line"/>
      <point x="149" y="582" type="line"/>
      <point x="92" y="582" type="line"/>
      <point x="95" y="300" type="line"/>
    </contour>
  </outline>
</glyph>
<glyph name="ldot" format="2">
  <advance width="382"/>
  <unicode hex="0140"/>
  <outline>
    <contour>
      <point x="259" y="361" type="line"/>
      <point x="357" y="361" type="line"/>
      <point x="357" y="447" type="line"/>
      <point x="259" y="447" type="line"/>
    </contour>
    <component base="l" xOffset="15"/>
  </outline>
</glyph>
<glyph name="Lslash" format="2">
  <advance width="438"/>
  <unicode hex="0141"/>
  <outline>
    <contour>
      <point x="4" y="240" type="line"/>
      <point x="309" y="450" type="line"/>
      <point x="309" y="533" type="line"/>
      <point x="4" y="322" type="line"/>
    </contour>
    <component base="L" xOffset="-3"/>
  </outline>
</glyph>
<glyph name="lslash" format="2">
  <advance width="286"/>
  <unicode hex="0142"/>
  <outline>
    <contour>
      <point x="106" y="0" type="line"/>
      <point x="189" y="0" type="line"/>
      <point x="189" y="375" type="line"/>
      <point x="257" y="420" type="line"/>
      <point x="257" y="502" type="line"/>
      <point x="189" y="456" type="line"/>
      <point x="189" y="753" type="line"/>
      <point x="106" y="753" type="line"/>
      <point x="106" y="400" type="line"/>
      <point x="29" y="349" type="line"/>
      <point x="29" y="270" type="line"/>
      <point x="106" y="320" type="line"/>
    </contour>
  </outline>
</glyph>
<glyph name="Eng" format="2">
  <advance width="680"/>
  <unicode hex="014A"/>
  <outline>
    <contour>
      <point x="422" y="-129" type="line"/>
      <point x="422" y="-196" type="line"/>
      <point x="467" y="-196" type="line" smooth="yes"/>
      <point x="547" y="-196"/>
      <point x="575" y="-143"/>
      <point x="575" y="-88" type="curve" smooth="yes"/>
      <point x="575" y="-52"/>
      <point x="575" y="-26"/>
      <point x="575" y="0" type="curve"/>
      <point x="462" y="0" type="line"/>
      <point x="476" y="-32"/>
      <point x="498" y="-66"/>
      <point x="498" y="-96" type="curve" smooth="yes"/>
      <point x="498" y="-119"/>
      <point x="477" y="-129"/>
      <point x="457" y="-129" type="curve" smooth="yes"/>
    </contour>
    <component base="N"/>
  </outline>
</glyph>
<glyph name="eng" format="2">
  <advance width="601"/>
  <unicode hex="014B"/>
  <outline>
    <contour>
      <point x="101" y="0" type="line"/>
      <point x="184" y="0" type="line"/>
      <point x="184" y="463" type="line"/>
      <point x="201" y="472"/>
      <point x="287" y="516"/>
      <point x="360" y="516" type="curve" smooth="yes"/>
      <point x="383" y="516"/>
      <point x="404" y="512"/>
      <point x="415" y="495" type="curve" smooth="yes"/>
      <point x="429" y="474"/>
      <point x="430" y="437"/>
      <point x="430" y="358" type="curve" smooth="yes"/>
      <point x="430" y="42" type="line" smooth="yes"/>
      <point x="430.0" y="-55"/>
      <point x="403" y="-65"/>
      <point x="368" y="-65" type="curve" smooth="yes"/>
      <point x="341" y="-65"/>
      <point x="321" y="-63"/>
      <point x="302" y="-60" type="curve"/>
      <point x="292" y="-132" type="line"/>
      <point x="317" y="-138"/>
      <point x="334" y="-138"/>
      <point x="348" y="-138" type="curve" smooth="yes"/>
      <point x="439" y="-138"/>
      <point x="513" y="-80"/>
      <point x="513" y="94" type="curve" smooth="yes"/>
      <point x="513" y="387" type="line" smooth="yes"/>
      <point x="513" y="505"/>
      <point x="489" y="595"/>
      <point x="379" y="595" type="curve" smooth="yes"/>
      <point x="292" y="595"/>
      <point x="195" y="539"/>
      <point x="171" y="525" type="curve"/>
      <point x="166" y="525" type="line"/>
      <point x="157" y="582" type="line"/>
      <point x="101" y="582" type="line"/>
    </contour>
  </outline>
</glyph>
<glyph name="OE" format="2">
  <advance width="909"/>
  <unicode hex="0152"/>
  <outline>
    <contour>
      <point x="328" y="-13" type="curve" smooth="yes"/>
      <point x="398" y="-13"/>
      <point x="454" y="7"/>
      <point x="495" y="54" type="curve"/>
      <point x="537" y="54" type="line"/>
      <point x="499" y="92" type="line"/>
      <point x="499" y="0" type="line"/>
      <point x="841" y="0" type="line"/>
      <point x="841" y="75" type="line"/>
      <point x="583" y="73" type="line"/>
      <point x="578" y="318" type="line"/>
      <point x="817" y="318" type="line"/>
      <point x="817" y="389" type="line"/>
      <point x="578" y="389" type="line"/>
      <point x="583" y="622" type="line"/>
      <point x="841" y="619" type="line"/>
      <point x="841" y="695" type="line"/>
      <point x="499" y="695" type="line"/>
      <point x="499" y="604" type="line"/>
      <point x="537" y="642" type="line"/>
      <point x="495" y="642" type="line"/>
      <point x="453" y="688"/>
      <point x="398" y="708"/>
      <point x="328" y="708" type="curve" smooth="yes"/>
      <point x="188" y="708"/>
      <point x="72" y="640"/>
      <point x="72" y="349" type="curve" smooth="yes"/>
      <point x="72" y="56"/>
      <point x="188" y="-13"/>
    </contour>
    <contour>
      <point x="328" y="64" type="curve" smooth="yes"/>
      <point x="212" y="64"/>
      <point x="161" y="97"/>
      <point x="161" y="346" type="curve" smooth="yes"/>
      <point x="161" y="595"/>
      <point x="209" y="632"/>
      <point x="328" y="632" type="curve" smooth="yes"/>
      <point x="446" y="632"/>
      <point x="495" y="595"/>
      <point x="495" y="346" type="curve" smooth="yes"/>
      <point x="495" y="97"/>
      <point x="443" y="64"/>
    </contour>
  </outline>
</glyph>
<glyph name="icaron" format="2">
  <advance width="295"/>
  <unicode hex="01D0"/>
  <outline>
    <contour>
      <point x="121" y="663" type="line"/>
      <point x="172" y="663" type="line"/>
      <point x="283" y="772" type="line"/>
      <point x="254" y="806" type="line"/>
      <point x="150" y="735" type="line"/>
      <point x="143" y="735" type="line"/>
      <point x="39" y="806" type="line"/>
      <point x="10" y="772" type="line"/>
    </contour>
    <component base="dotlessi"/>
  </outline>
</glyph>
<glyph name="caron" format="2">
  <advance width="293"/>
  <unicode hex="02C7"/>
  <outline>
    <contour>
      <point x="121" y="663" type="line"/>
      <point x="172" y="663" type="line"/>
      <point x="293" y="772" type="line"/>
      <point x="264" y="806" type="line"/>
      <point x="150" y="735" type="line"/>
      <point x="143" y="735" type="line"/>
      <point x="29" y="806" type="line"/>
      <point x="0" y="772" type="line"/>
    </contour>
  </outline>
</glyph>
<glyph name="hungarumlautcomb" format="2">
  <unicode hex="030B"/>
  <outline>
    <contour>
      <point x="33" y="649" type="line"/>
      <point x="198" y="761" type="line"/>
      <point x="153" y="820" type="line"/>
      <point x="0" y="689" type="line"/>
    </contour>
    <contour>
      <point x="220" y="649" type="line"/>
      <point x="393" y="761" type="line"/>
      <point x="348" y="820" type="line"/>
      <point x="188" y="689" type="line"/>
    </contour>
  </outline>
</glyph>
<glyph name="horncomb" format="2">
  <unicode hex="031B"/>
  <outline>
    <contour>
      <point x="-47" y="582" type="line"/>
      <point x="-34" y="524" type="line"/>
      <point x="29" y="524" type="line" smooth="yes"/>
      <point x="94.0" y="524.0"/>
      <point x="146" y="561"/>
      <point x="146" y="627" type="curve" smooth="yes"/>
      <point x="146" y="659"/>
      <point x="138" y="694"/>
      <point x="131" y="720" type="curve"/>
      <point x="58" y="720" type="line"/>
      <point x="65" y="688"/>
      <point x="76" y="634"/>
      <point x="76" y="613" type="curve" smooth="yes"/>
      <point x="76" y="590"/>
      <point x="59" y="582"/>
      <point x="39" y="582" type="curve" smooth="yes"/>
    </contour>
  </outline>
</glyph>
<glyph name="dotbelowcomb" format="2">
  <unicode hex="0323"/>
  <outline>
    <contour>
      <point x="0" y="-166" type="line"/>
      <point x="102" y="-166" type="line"/>
      <point x="102" y="-81" type="line"/>
      <point x="0" y="-81" type="line"/>
    </contour>
  </outline>
</glyph>
<glyph name="Be-cy" format="2">
  <advance width="582"/>
  <unicode hex="0411"/>
  <guideline x="477" y="222" angle="90" identifier="sGsZkDon1m"/>
  <outline>
    <contour>
      <point x="105" y="1" type="line"/>
      <point x="144" y="-7.0"/>
      <point x="212" y="-13"/>
      <point x="293" y="-13" type="curve" smooth="yes"/>
      <point x="452" y="-13"/>
      <point x="522" y="65"/>
      <point x="522" y="197" type="curve" smooth="yes"/>
      <point x="522" y="363"/>
      <point x="423" y="411"/>
      <point x="314" y="411" type="curve" smooth="yes"/>
      <point x="264" y="411"/>
      <point x="218" y="408"/>
      <point x="192" y="405" type="curve"/>
      <point x="190" y="621" type="line"/>
      <point x="422" y="621" type="line"/>
      <point x="422" y="695" type="line"/>
      <point x="111" y="695" type="line"/>
      <point x="109" y="373" type="line"/>
    </contour>
    <contour>
      <point x="320" y="337" type="curve" smooth="yes"/>
      <point x="362" y="337"/>
      <point x="388" y="334"/>
      <point x="404" y="318" type="curve" smooth="yes"/>
      <point x="427" y="295"/>
      <point x="433" y="239"/>
      <point x="433" y="185" type="curve" smooth="yes"/>
      <point x="433" y="111"/>
      <point x="414" y="85"/>
      <point x="399" y="75" type="curve" smooth="yes"/>
      <point x="386" y="66"/>
      <point x="353" y="59"/>
      <point x="315" y="59" type="curve" smooth="yes"/>
      <point x="267" y="59"/>
      <point x="220" y="64"/>
      <point x="194" y="69" type="curve"/>
      <point x="193" y="326" type="line"/>
      <point x="220" y="330"/>
      <point x="273" y="337"/>
    </contour>
  </outline>
</glyph>
<glyph name="Ge-cy" format="2">
  <advance width="464"/>
  <unicode hex="0413"/>
  <outline>
    <contour>
      <point x="105" y="0" type="line"/>
      <point x="105" y="695" type="line"/>
      <point x="416" y="695" type="line"/>
      <point x="416" y="621" type="line"/>
      <point x="150" y="621" type="line"/>
      <point x="184" y="663" type="line"/>
      <point x="189" y="0" type="line"/>
    </contour>
  </outline>
</glyph>
<glyph name="De-cy" format="2">
  <advance width="665"/>
  <unicode hex="0414"/>
  <guideline x="322" y="70" angle="0" identifier="dsi4pALOgg"/>
  <outline>
    <contour>
      <point x="26" y="-104" type="line"/>
      <point x="110" y="-104" type="line"/>
      <point x="109" y="0" type="line"/>
      <point x="524" y="0" type="line"/>
      <point x="523" y="-104" type="line"/>
      <point x="607" y="-104" type="line"/>
      <point x="607" y="74" type="line"/>
      <point x="538" y="74" type="line"/>
      <point x="538" y="695" type="line"/>
      <point x="159" y="695" type="line"/>
      <point x="129" y="242" type="line" smooth="yes"/>
      <point x="123" y="144"/>
      <point x="106" y="99"/>
      <point x="77" y="84" type="curve" smooth="yes"/>
      <point x="60" y="75"/>
      <point x="43" y="74"/>
      <point x="26" y="74" type="curve"/>
    </contour>
    <contour>
      <point x="207" y="206" type="curve" smooth="yes"/>
      <point x="237" y="621" type="line"/>
      <point x="454" y="621" type="line"/>
      <point x="456" y="352" type="line"/>
      <point x="454" y="74" type="line"/>
      <point x="175" y="74" type="line"/>
      <point x="192" y="100"/>
      <point x="202" y="139"/>
    </contour>
  </outline>
</glyph>
<glyph name="Ze-cy" format="2">
  <advance width="560"/>
  <unicode hex="0417"/>
  <outline>
    <contour>
      <point x="255" y="-13" type="curve" smooth="yes"/>
      <point x="421" y="-13"/>
      <point x="476" y="82"/>
      <point x="476" y="194" type="curve" smooth="yes"/>
      <point x="476" y="296"/>
      <point x="428" y="344"/>
      <point x="342" y="355" type="curve"/>
      <point x="342" y="359" type="line"/>
      <point x="424" y="373"/>
      <point x="456" y="433"/>
      <point x="456" y="533" type="curve" smooth="yes"/>
      <point x="456" y="659"/>
      <point x="386" y="708"/>
      <point x="251" y="708" type="curve" smooth="yes"/>
      <point x="202" y="708"/>
      <point x="128" y="698"/>
      <point x="82" y="683" type="curve"/>
      <point x="94" y="612" type="line"/>
      <point x="152" y="624"/>
      <point x="210" y="632"/>
      <point x="240" y="632" type="curve" smooth="yes"/>
      <point x="288" y="632"/>
      <point x="331" y="624"/>
      <point x="350" y="606" type="curve" smooth="yes"/>
      <point x="364" y="592"/>
      <point x="370" y="561"/>
      <point x="370" y="524" type="curve" smooth="yes"/>
      <point x="370" y="421"/>
      <point x="343" y="393"/>
      <point x="256" y="392" type="curve" smooth="yes"/>
      <point x="112" y="391" type="line"/>
      <point x="112" y="321" type="line"/>
      <point x="250" y="320" type="line" smooth="yes"/>
      <point x="354" y="319"/>
      <point x="387" y="279"/>
      <point x="387" y="187" type="curve" smooth="yes"/>
      <point x="387" y="99"/>
      <point x="362" y="60"/>
      <point x="268" y="60" type="curve" smooth="yes"/>
      <point x="183" y="60"/>
      <point x="112" y="92"/>
      <point x="71" y="108" type="curve"/>
      <point x="41" y="45" type="line"/>
      <point x="75" y="23"/>
      <point x="154" y="-13"/>
    </contour>
  </outline>
</glyph>
<glyph name="Ii-cy" format="2">
  <advance width="690"/>
  <unicode hex="0418"/>
  <outline>
    <contour>
      <point x="105" y="0" type="line"/>
      <point x="202" y="0" type="line"/>
      <point x="502" y="616" type="line"/>
      <point x="504" y="329" type="line"/>
      <point x="501" y="0" type="line"/>
      <point x="585" y="0" type="line"/>
      <point x="585" y="695" type="line"/>
      <point x="459" y="695" type="line"/>
      <point x="188" y="141" type="line"/>
      <point x="186" y="329" type="line"/>
      <point x="189" y="695" type="line"/>
      <point x="105" y="695" type="line"/>
    </contour>
  </outline>
</glyph>
<glyph name="U-cy" format="2">
  <advance width="524"/>
  <unicode hex="0423"/>
  <guideline x="331" y="389" angle="0" identifier="VUZgIceWxe"/>
  <outline>
    <contour>
      <point x="150" y="-13" type="curve" smooth="yes"/>
      <point x="181" y="-13"/>
      <point x="221" y="-3"/>
      <point x="243" y="17" type="curve" smooth="yes"/>
      <point x="281" y="51"/>
      <point x="302" y="109"/>
      <point x="342" y="231" type="curve" smooth="yes"/>
      <point x="495" y="695" type="line"/>
      <point x="406" y="695" type="line"/>
      <point x="273" y="245" type="line"/>
      <point x="270" y="245" type="line"/>
      <point x="110" y="695" type="line"/>
      <point x="21" y="695" type="line"/>
      <point x="235" y="141" type="line"/>
      <point x="216" y="85"/>
      <point x="196.56070170039655" y="60.0"/>
      <point x="153" y="60" type="curve" smooth="yes"/>
      <point x="134" y="60"/>
      <point x="98" y="67"/>
      <point x="88" y="70" type="curve"/>
      <point x="74" y="0" type="line"/>
      <point x="91" y="-6"/>
      <point x="123" y="-13"/>
    </contour>
  </outline>
</glyph>
<glyph name="Ef-cy" format="2">
  <advance width="722"/>
  <unicode hex="0424"/>
  <outline>
    <contour>
      <point x="361" y="67" type="curve" smooth="yes"/>
      <point x="561" y="67"/>
      <point x="677" y="136"/>
      <point x="677" y="349" type="curve" smooth="yes"/>
      <point x="677" y="560"/>
      <point x="561" y="628"/>
      <point x="361" y="628" type="curve" smooth="yes"/>
      <point x="161" y="628"/>
      <point x="45" y="560"/>
      <point x="45" y="349" type="curve" smooth="yes"/>
      <point x="45" y="136"/>
      <point x="161" y="67"/>
    </contour>
    <contour>
      <point x="361" y="138" type="curve" smooth="yes"/>
      <point x="184" y="138"/>
      <point x="135" y="180"/>
      <point x="135" y="346" type="curve" smooth="yes"/>
      <point x="135" y="516"/>
      <point x="184" y="558"/>
      <point x="361" y="558" type="curve" smooth="yes"/>
      <point x="538" y="558"/>
      <point x="587" y="516"/>
      <point x="587" y="346" type="curve" smooth="yes"/>
      <point x="587" y="180"/>
      <point x="538" y="138"/>
    </contour>
    <component base="I" xOffset="214"/>
  </outline>
</glyph>
<glyph name="Shcha-cy" format="2">
  <advance width="897"/>
  <unicode hex="0429"/>
  <guideline x="734" y="74" angle="90" identifier="h3ABKo7m96"/>
  <guideline x="815" y="82" angle="90" identifier="Zy9B8NIJWx"/>
  <outline>
    <contour>
      <point x="105" y="0" type="line"/>
      <point x="792" y="0" type="line"/>
      <point x="792" y="695" type="line"/>
      <point x="708" y="695" type="line"/>
      <point x="710" y="357" type="line"/>
      <point x="711" y="36" type="line"/>
      <point x="749" y="74" type="line"/>
      <point x="453" y="74" type="line"/>
      <point x="491" y="36" type="line"/>
      <point x="491" y="352" type="line"/>
      <point x="492" y="695" type="line"/>
      <point x="408" y="695" type="line"/>
      <point x="409" y="353" type="line"/>
      <point x="410" y="36" type="line"/>
      <point x="448" y="74" type="line"/>
      <point x="148" y="74" type="line"/>
      <point x="186" y="36" type="line"/>
      <point x="187" y="360" type="line"/>
      <point x="189" y="695" type="line"/>
      <point x="105" y="695" type="line"/>
    </contour>
    <contour>
      <point x="748" y="60" type="line"/>
      <point x="773" y="-124" type="line"/>
      <point x="844" y="-124" type="line"/>
      <point x="844" y="61" type="line"/>
    </contour>
  </outline>
</glyph>
<glyph name="Hardsign-cy" format="2">
  <advance width="639"/>
  <unicode hex="042A"/>
  <outline>
    <contour>
      <point x="157" y="1" type="curve"/>
      <point x="161" y="373" type="line"/>
      <point x="157" y="695" type="line"/>
      <point x="241" y="695" type="line"/>
      <point x="241" y="410" type="line"/>
      <point x="231" y="424" type="line"/>
      <point x="251" y="426"/>
      <point x="306" y="431"/>
      <point x="366" y="431" type="curve" smooth="yes"/>
      <point x="485" y="431"/>
      <point x="584" y="383"/>
      <point x="584" y="207" type="curve" smooth="yes"/>
      <point x="584" y="65"/>
      <point x="516" y="-13"/>
      <point x="367" y="-13" type="curve" smooth="yes"/>
      <point x="280" y="-13"/>
      <point x="157" y="1"/>
    </contour>
    <contour>
      <point x="372" y="359" type="curve" smooth="yes"/>
      <point x="301" y="359"/>
      <point x="256" y="351"/>
      <point x="229" y="346" type="curve"/>
      <point x="241" y="367" type="line"/>
      <point x="241" y="22" type="line"/>
      <point x="230" y="73" type="line"/>
      <point x="245" y="68"/>
      <point x="305" y="59"/>
      <point x="367" y="59" type="curve" smooth="yes"/>
      <point x="415" y="59"/>
      <point x="448" y="66"/>
      <point x="461" y="75" type="curve" smooth="yes"/>
      <point x="476" y="85"/>
      <point x="495" y="111"/>
      <point x="495" y="195" type="curve" smooth="yes"/>
      <point x="495" y="259"/>
      <point x="489" y="317"/>
      <point x="466" y="340" type="curve" smooth="yes"/>
      <point x="450" y="356"/>
      <point x="424" y="359"/>
    </contour>
    <contour>
      <point x="15" y="620" type="line"/>
      <point x="15" y="695" type="line"/>
      <point x="241" y="695" type="line"/>
      <point x="168" y="623" type="line"/>
    </contour>
  </outline>
</glyph>
<glyph name="Softsign-cy" format="2">
  <advance width="590"/>
  <unicode hex="042C"/>
  <outline>
    <contour>
      <point x="105" y="1" type="curve"/>
      <point x="109" y="373" type="line"/>
      <point x="105" y="695" type="line"/>
      <point x="189" y="695" type="line"/>
      <point x="189" y="410" type="line"/>
      <point x="179" y="424" type="line"/>
      <point x="199" y="426"/>
      <point x="254" y="431"/>
      <point x="314" y="431" type="curve" smooth="yes"/>
      <point x="433" y="431"/>
      <point x="532" y="383"/>
      <point x="532" y="207" type="curve" smooth="yes"/>
      <point x="532" y="65"/>
      <point x="464" y="-13"/>
      <point x="315" y="-13" type="curve" smooth="yes"/>
      <point x="228" y="-13"/>
      <point x="105" y="1"/>
    </contour>
    <contour>
      <point x="320" y="359" type="curve" smooth="yes"/>
      <point x="249" y="359"/>
      <point x="204" y="351"/>
      <point x="177" y="346" type="curve"/>
      <point x="189" y="367" type="line"/>
      <point x="189" y="22" type="line"/>
      <point x="178" y="73" type="line"/>
      <point x="193" y="68"/>
      <point x="253" y="59"/>
      <point x="315" y="59" type="curve" smooth="yes"/>
      <point x="363" y="59"/>
      <point x="396" y="66"/>
      <point x="409" y="75" type="curve" smooth="yes"/>
      <point x="424" y="85"/>
      <point x="443" y="111"/>
      <point x="443" y="195" type="curve" smooth="yes"/>
      <point x="443" y="259"/>
      <point x="437" y="317"/>
      <point x="414" y="340" type="curve" smooth="yes"/>
      <point x="398" y="356"/>
      <point x="372" y="359"/>
    </contour>
  </outline>
</glyph>
<glyph name="Ia-cy" format="2">
  <advance width="623"/>
  <unicode hex="042F"/>
  <guideline x="79" y="497" angle="90" identifier="BwENSmpede"/>
  <guideline x="336" y="295" angle="90" identifier="qVwSThpLl1"/>
  <outline>
    <contour>
      <point x="79" y="0" type="line"/>
      <point x="178" y="0" type="line"/>
      <point x="295" y="283" type="line"/>
      <point x="301" y="283"/>
      <point x="307.00471853987017" y="282.7620920055504"/>
      <point x="439" y="288" type="curve"/>
      <point x="439" y="0" type="line"/>
      <point x="524" y="0" type="line"/>
      <point x="519" y="339" type="line"/>
      <point x="522" y="695" type="line"/>
      <point x="492" y="699"/>
      <point x="384" y="708"/>
      <point x="337" y="708" type="curve" smooth="yes"/>
      <point x="171" y="708"/>
      <point x="79" y="650"/>
      <point x="79" y="497" type="curve" smooth="yes"/>
      <point x="79" y="376"/>
      <point x="132" y="313"/>
      <point x="217" y="291" type="curve"/>
    </contour>
    <contour>
      <point x="291" y="351" type="curve" smooth="yes"/>
      <point x="255" y="351"/>
      <point x="229" y="359"/>
      <point x="210" y="373" type="curve" smooth="yes"/>
      <point x="178" y="397"/>
      <point x="168" y="440"/>
      <point x="168" y="498" type="curve" smooth="yes"/>
      <point x="168" y="576"/>
      <point x="183" y="616"/>
      <point x="207" y="630" type="curve" smooth="yes"/>
      <point x="222" y="639"/>
      <point x="254" y="644"/>
      <point x="299" y="644" type="curve" smooth="yes"/>
      <point x="354" y="644"/>
      <point x="408" y="637"/>
      <point x="438" y="633" type="curve"/>
      <point x="440" y="361" type="line"/>
      <point x="393" y="356"/>
      <point x="338" y="351"/>
    </contour>
  </outline>
</glyph>
<glyph name="be-cy" format="2">
  <advance width="579"/>
  <unicode hex="0431"/>
  <outline>
    <contour>
      <point x="288" y="-13" type="curve" smooth="yes"/>
      <point x="454" y="-13"/>
      <point x="509" y="98"/>
      <point x="509" y="276" type="curve" smooth="yes"/>
      <point x="509" y="419"/>
      <point x="454" y="520"/>
      <point x="294" y="520" type="curve" smooth="yes"/>
      <point x="225" y="520"/>
      <point x="162" y="492"/>
      <point x="134" y="438" type="curve"/>
      <point x="151" y="425" type="line"/>
      <point x="153" y="540"/>
      <point x="180" y="629"/>
      <point x="209" y="660" type="curve" smooth="yes"/>
      <point x="224" y="677"/>
      <point x="244" y="681"/>
      <point x="318" y="681" type="curve" smooth="yes"/>
      <point x="354" y="681"/>
      <point x="416" y="682"/>
      <point x="429" y="684" type="curve"/>
      <point x="446" y="754" type="line"/>
      <point x="404" y="756"/>
      <point x="366" y="754"/>
      <point x="320" y="754" type="curve" smooth="yes"/>
      <point x="126" y="754"/>
      <point x="70" y="642"/>
      <point x="70" y="316" type="curve" smooth="yes"/>
      <point x="70" y="101"/>
      <point x="123" y="-13"/>
    </contour>
    <contour>
      <point x="288" y="58" type="curve" smooth="yes"/>
      <point x="187" y="58"/>
      <point x="155" y="90"/>
      <point x="155" y="275" type="curve" smooth="yes"/>
      <point x="155" y="407"/>
      <point x="187" y="449"/>
      <point x="293" y="449" type="curve" smooth="yes"/>
      <point x="385" y="449"/>
      <point x="422" y="419"/>
      <point x="422" y="275" type="curve" smooth="yes"/>
      <point x="422" y="90"/>
      <point x="389" y="58"/>
    </contour>
  </outline>
</glyph>
<glyph name="ve-cy" format="2">
  <advance width="561"/>
  <unicode hex="0432"/>
  <outline>
    <contour>
      <point x="305" y="-14" type="curve" smooth="yes"/>
      <point x="394" y="-14"/>
      <point x="498" y="37"/>
      <point x="498" y="163" type="curve" smooth="yes"/>
      <point x="498" y="285"/>
      <point x="383" y="304"/>
      <point x="355" y="302" type="curve"/>
      <point x="367" y="263" type="line"/>
      <point x="367" y="342" type="line"/>
      <point x="351" y="302" type="line"/>
      <point x="377" y="305"/>
      <point x="479" y="321"/>
      <point x="479" y="439" type="curve" smooth="yes"/>
      <point x="479" y="552"/>
      <point x="392" y="596"/>
      <point x="289" y="596" type="curve" smooth="yes"/>
      <point x="194" y="596"/>
      <point x="79" y="584"/>
      <point x="79" y="584" type="curve"/>
      <point x="84" y="272" type="line"/>
      <point x="81" y="2" type="line"/>
      <point x="81" y="2"/>
      <point x="199" y="-14"/>
    </contour>
    <contour>
      <point x="324" y="58" type="curve" smooth="yes"/>
      <point x="241" y="58"/>
      <point x="171" y="68"/>
      <point x="157" y="70" type="curve"/>
      <point x="164" y="30" type="line"/>
      <point x="162" y="281" type="line"/>
      <point x="124" y="268" type="line"/>
      <point x="291" y="268" type="line" smooth="yes"/>
      <point x="364" y="268"/>
      <point x="413" y="238"/>
      <point x="413" y="168" type="curve" smooth="yes"/>
      <point x="413" y="96"/>
      <point x="394" y="58"/>
    </contour>
    <contour>
      <point x="293" y="335" type="curve" smooth="yes"/>
      <point x="154" y="336" type="line"/>
      <point x="162" y="297" type="line"/>
      <point x="162" y="554" type="line"/>
      <point x="154" y="515" type="line"/>
      <point x="169" y="517"/>
      <point x="225" y="524"/>
      <point x="286" y="524" type="curve" smooth="yes"/>
      <point x="365" y="524"/>
      <point x="396" y="500"/>
      <point x="396" y="436" type="curve" smooth="yes"/>
      <point x="396" y="359"/>
      <point x="373" y="334"/>
    </contour>
  </outline>
</glyph>
<glyph name="de-cy" format="2">
  <advance width="600"/>
  <unicode hex="0434"/>
  <outline>
    <contour>
      <point x="3" y="-104" type="line"/>
      <point x="86" y="-104" type="line"/>
      <point x="86" y="0" type="line"/>
      <point x="489" y="0" type="line"/>
      <point x="489" y="-104" type="line"/>
      <point x="572" y="-104" type="line"/>
      <point x="572" y="72" type="line"/>
      <point x="493" y="72" type="line"/>
      <point x="493" y="582" type="line"/>
      <point x="139" y="582" type="line"/>
      <point x="112" y="245" type="line" smooth="yes"/>
      <point x="103" y="132"/>
      <point x="97" y="109"/>
      <point x="77" y="93" type="curve" smooth="yes"/>
      <point x="56" y="76"/>
      <point x="18" y="72"/>
      <point x="3" y="72" type="curve"/>
    </contour>
    <contour>
      <point x="189" y="178" type="curve" smooth="yes"/>
      <point x="216" y="510" type="line"/>
      <point x="410" y="510" type="line"/>
      <point x="412" y="281" type="line"/>
      <point x="410" y="72" type="line"/>
      <point x="157" y="72" type="line"/>
      <point x="178" y="101"/>
      <point x="185" y="133"/>
    </contour>
  </outline>
</glyph>
<glyph name="ka-cy" format="2">
  <advance width="516"/>
  <unicode hex="043A"/>
  <outline>
    <contour>
      <point x="417" y="0" type="line"/>
      <point x="525" y="0" type="line"/>
      <point x="275" y="289" type="line"/>
      <point x="275" y="294" type="line"/>
      <point x="511" y="582" type="line"/>
      <point x="403" y="582" type="line"/>
      <point x="184" y="293" type="line"/>
    </contour>
    <contour>
      <point x="105" y="0" type="line"/>
      <point x="188" y="0" type="line"/>
      <point x="183" y="293" type="line"/>
      <point x="188" y="582" type="line"/>
      <point x="105" y="582" type="line"/>
      <point x="110" y="293" type="line"/>
    </contour>
  </outline>
</glyph>
<glyph name="en-cy" format="2">
  <advance width="607"/>
  <unicode hex="043D"/>
  <outline>
    <contour>
      <point x="90" y="0" type="line"/>
      <point x="173" y="0" type="line"/>
      <point x="172" y="293" type="line"/>
      <point x="173" y="582" type="line"/>
      <point x="90" y="582" type="line"/>
    </contour>
    <contour>
      <point x="434" y="0" type="line"/>
      <point x="517" y="0" type="line"/>
      <point x="517" y="582" type="line"/>
      <point x="434" y="582" type="line"/>
      <point x="435" y="288" type="line"/>
    </contour>
    <contour>
      <point x="97" y="261" type="line"/>
      <point x="507" y="261" type="line"/>
      <point x="507" y="333" type="line"/>
      <point x="97" y="333" type="line"/>
    </contour>
  </outline>
</glyph>
<glyph name="pe-cy" format="2">
  <advance width="611"/>
  <unicode hex="043F"/>
  <outline>
    <contour>
      <point x="90" y="0" type="line"/>
      <point x="173" y="0" type="line"/>
      <point x="173" y="582" type="line"/>
      <point x="90" y="582" type="line"/>
    </contour>
    <contour>
      <point x="438" y="0" type="line"/>
      <point x="521" y="0" type="line"/>
      <point x="521" y="582" type="line"/>
      <point x="438" y="582" type="line"/>
    </contour>
    <contour>
      <point x="110" y="510" type="line"/>
      <point x="306" y="511" type="line"/>
      <point x="501" y="510" type="line"/>
      <point x="501" y="582" type="line"/>
      <point x="110" y="582" type="line"/>
    </contour>
  </outline>
</glyph>
<glyph name="te-cy" format="2">
  <advance width="466"/>
  <unicode hex="0442"/>
  <outline>
    <contour>
      <point x="194" y="0" type="line"/>
      <point x="277" y="0" type="line"/>
      <point x="277" y="511" type="line"/>
      <point x="464" y="510" type="line"/>
      <point x="464" y="582" type="line"/>
      <point x="2" y="582" type="line"/>
      <point x="2" y="510" type="line"/>
      <point x="194" y="511" type="line"/>
    </contour>
  </outline>
</glyph>
<glyph name="tse-cy" format="2">
  <advance width="709"/>
  <unicode hex="0446"/>
  <outline>
    <contour>
      <point x="125" y="0" type="line"/>
      <point x="537" y="0" type="line"/>
      <point x="537" y="72" type="line"/>
      <point x="326" y="70" type="line"/>
      <point x="125" y="72" type="line"/>
    </contour>
    <contour>
      <point x="105" y="0" type="line"/>
      <point x="188" y="0" type="line"/>
      <point x="188" y="582" type="line"/>
      <point x="105" y="582" type="line"/>
    </contour>
    <contour>
      <point x="454" y="0" type="line"/>
      <point x="537" y="0" type="line"/>
      <point x="537" y="582" type="line"/>
      <point x="454" y="582" type="line"/>
    </contour>
    <contour>
      <point x="530" y="-136" type="line"/>
      <point x="594" y="-136" type="line"/>
      <point x="594" y="70" type="line"/>
      <point x="506" y="70" type="line"/>
    </contour>
  </outline>
</glyph>
<glyph name="che-cy" format="2">
  <advance width="594"/>
  <unicode hex="0447"/>
  <outline>
    <contour>
      <point x="421" y="0" type="line"/>
      <point x="504" y="0" type="line"/>
      <point x="504" y="582" type="line"/>
      <point x="421" y="582" type="line"/>
      <point x="421" y="314" type="line"/>
      <point x="404" y="307"/>
      <point x="338" y="285"/>
      <point x="261" y="285" type="curve" smooth="yes"/>
      <point x="241" y="285"/>
      <point x="199" y="286"/>
      <point x="181" y="302" type="curve" smooth="yes"/>
      <point x="158" y="323"/>
      <point x="153" y="366"/>
      <point x="153" y="444" type="curve" smooth="yes"/>
      <point x="153" y="582" type="line"/>
      <point x="70" y="582" type="line"/>
      <point x="70" y="414" type="line" smooth="yes"/>
      <point x="70" y="279"/>
      <point x="104" y="206"/>
      <point x="250" y="206" type="curve" smooth="yes"/>
      <point x="306" y="206"/>
      <point x="368" y="222"/>
      <point x="421" y="243" type="curve"/>
    </contour>
  </outline>
</glyph>
<glyph name="shcha-cy" format="2">
  <advance width="941"/>
  <unicode hex="0449"/>
  <outline>
    <contour>
      <point x="105" y="0" type="line"/>
      <point x="188" y="0" type="line"/>
      <point x="188" y="582" type="line"/>
      <point x="105" y="582" type="line"/>
    </contour>
    <contour>
      <point x="125" y="0" type="line"/>
      <point x="492" y="0" type="line"/>
      <point x="492" y="72" type="line"/>
      <point x="125" y="72" type="line"/>
    </contour>
    <contour>
      <point x="429" y="0" type="line"/>
      <point x="512" y="0" type="line"/>
      <point x="512" y="582" type="line"/>
      <point x="429" y="582" type="line"/>
    </contour>
    <contour>
      <point x="449" y="0" type="line"/>
      <point x="816" y="0" type="line"/>
      <point x="816" y="72" type="line"/>
      <point x="449" y="72" type="line"/>
    </contour>
    <contour>
      <point x="753" y="0" type="line"/>
      <point x="836" y="0" type="line"/>
      <point x="836" y="582" type="line"/>
      <point x="753" y="582" type="line"/>
    </contour>
    <contour>
      <point x="830" y="-133" type="line"/>
      <point x="894" y="-133" type="line"/>
      <point x="894" y="72" type="line"/>
      <point x="806" y="72" type="line"/>
    </contour>
  </outline>
</glyph>
<glyph name="softsign-cy" format="2">
  <advance width="561"/>
  <unicode hex="044C"/>
  <outline>
    <contour>
      <point x="284" y="-13" type="curve" smooth="yes"/>
      <point x="439" y="-13"/>
      <point x="507" y="67"/>
      <point x="507" y="187" type="curve" smooth="yes"/>
      <point x="507" y="368"/>
      <point x="417" y="410"/>
      <point x="274" y="408" type="curve" smooth="yes"/>
      <point x="245" y="408"/>
      <point x="200" y="405"/>
      <point x="163" y="402" type="curve"/>
      <point x="163" y="582" type="line"/>
      <point x="79" y="582" type="line"/>
      <point x="80" y="260" type="line"/>
      <point x="79" y="1" type="line"/>
      <point x="122" y="-7"/>
      <point x="202" y="-13"/>
    </contour>
    <contour>
      <point x="289" y="58" type="curve" smooth="yes"/>
      <point x="237" y="58"/>
      <point x="187" y="64"/>
      <point x="163" y="69" type="curve"/>
      <point x="163" y="327" type="line"/>
      <point x="190" y="331"/>
      <point x="239" y="337"/>
      <point x="294" y="337" type="curve" smooth="yes"/>
      <point x="346" y="337"/>
      <point x="378" y="334"/>
      <point x="394" y="318" type="curve" smooth="yes"/>
      <point x="417" y="295"/>
      <point x="423" y="239"/>
      <point x="423" y="179" type="curve" smooth="yes"/>
      <point x="423" y="107"/>
      <point x="404" y="84"/>
      <point x="389" y="74" type="curve" smooth="yes"/>
      <point x="376" y="65"/>
      <point x="337" y="58"/>
    </contour>
  </outline>
</glyph>
<glyph name="dje-cy" format="2">
  <advance width="650"/>
  <unicode hex="0452"/>
  <outline>
    <contour>
      <point x="349" y="-180" type="curve" smooth="yes"/>
      <point x="438" y="-180"/>
      <point x="508" y="-119"/>
      <point x="508" y="-8" type="curve" smooth="yes"/>
      <point x="508" y="-4"/>
      <point x="508" y="-3"/>
      <point x="508" y="1" type="curve"/>
      <point x="424" y="6" type="line"/>
      <point x="424" y="-12" type="line" smooth="yes"/>
      <point x="424" y="-93"/>
      <point x="401" y="-107"/>
      <point x="361" y="-107" type="curve" smooth="yes"/>
      <point x="338" y="-107"/>
      <point x="302" y="-103"/>
      <point x="289" y="-101" type="curve"/>
      <point x="279" y="-173" type="line"/>
      <point x="294" y="-176"/>
      <point x="326" y="-180"/>
    </contour>
    <component base="hbar"/>
  </outline>
</glyph>
<glyph name="e-cy" format="2">
  <advance width="525"/>
  <unicode hex="0454"/>
  <outline>
    <contour>
      <point x="149" y="261" type="line"/>
      <point x="398" y="261" type="line"/>
      <point x="398" y="333" type="line"/>
      <point x="149" y="333" type="line"/>
    </contour>
    <component base="c"/>
  </outline>
</glyph>
<glyph name="dzhe-cy" format="2">
  <advance width="642"/>
  <unicode hex="045F"/>
  <outline>
    <contour>
      <point x="105" y="0" type="line"/>
      <point x="188" y="0" type="line"/>
      <point x="188" y="582" type="line"/>
      <point x="105" y="582" type="line"/>
    </contour>
    <contour>
      <point x="125" y="0" type="line"/>
      <point x="517" y="0" type="line"/>
      <point x="517" y="72" type="line"/>
      <point x="125" y="72" type="line"/>
    </contour>
    <contour>
      <point x="296" y="-136" type="line"/>
      <point x="360" y="-136" type="line"/>
      <point x="360" y="61" type="line"/>
      <point x="272" y="61" type="line"/>
    </contour>
    <contour>
      <point x="454" y="0" type="line"/>
      <point x="537" y="0" type="line"/>
      <point x="537" y="582" type="line"/>
      <point x="454" y="582" type="line"/>
    </contour>
  </outline>
</glyph>
<glyph name="Yat-cy" format="2">
  <advance width="643"/>
  <unicode hex="0462"/>
  <outline>
    <contour>
      <point x="403" y="596" type="line"/>
      <point x="403" y="522" type="line"/>
      <point x="218" y="525" type="line"/>
      <point x="32" y="522" type="line"/>
      <point x="32" y="596" type="line"/>
    </contour>
    <component base="Softsign-cy" xOffset="63"/>
  </outline>
</glyph>
<glyph name="yat-cy" format="2">
  <advance width="629"/>
  <unicode hex="0463"/>
  <outline>
    <contour>
      <point x="346" y="-13" type="curve" smooth="yes"/>
      <point x="501" y="-13"/>
      <point x="569" y="67"/>
      <point x="569" y="187" type="curve" smooth="yes"/>
      <point x="569" y="368"/>
      <point x="479" y="410"/>
      <point x="336" y="408" type="curve" smooth="yes"/>
      <point x="307" y="408"/>
      <point x="262" y="405"/>
      <point x="225" y="402" type="curve"/>
      <point x="225" y="753" type="line"/>
      <point x="141" y="753" type="line"/>
      <point x="142" y="402" type="line"/>
      <point x="141" y="1" type="line"/>
      <point x="184" y="-7"/>
      <point x="264" y="-13"/>
    </contour>
    <contour>
      <point x="351" y="58" type="curve" smooth="yes"/>
      <point x="299" y="58"/>
      <point x="249" y="64"/>
      <point x="225" y="69" type="curve"/>
      <point x="225" y="327" type="line"/>
      <point x="252" y="331"/>
      <point x="301" y="337"/>
      <point x="356" y="337" type="curve" smooth="yes"/>
      <point x="408" y="337"/>
      <point x="440" y="334"/>
      <point x="456" y="318" type="curve" smooth="yes"/>
      <point x="479" y="295"/>
      <point x="485" y="239"/>
      <point x="485" y="179" type="curve" smooth="yes"/>
      <point x="485" y="107"/>
      <point x="466" y="84"/>
      <point x="451" y="74" type="curve" smooth="yes"/>
      <point x="438" y="65"/>
      <point x="399" y="58"/>
    </contour>
    <contour>
      <point x="41" y="614" type="line"/>
      <point x="170" y="616" type="line"/>
      <point x="360" y="614" type="line"/>
      <point x="360" y="679" type="line"/>
      <point x="41" y="679" type="line"/>
    </contour>
  </outline>
</glyph>
<glyph name="fita-cy" format="2">
  <advance width="576"/>
  <unicode hex="0473"/>
  <outline>
    <contour>
      <point x="288" y="-13" type="curve" smooth="yes"/>
      <point x="431" y="-13"/>
      <point x="506" y="72"/>
      <point x="506" y="291" type="curve" smooth="yes"/>
      <point x="506" y="498"/>
      <point x="439" y="595"/>
      <point x="288" y="595" type="curve" smooth="yes"/>
      <point x="144" y="595"/>
      <point x="70" y="510"/>
      <point x="70" y="291" type="curve" smooth="yes"/>
      <point x="70" y="89"/>
      <point x="137" y="-13"/>
    </contour>
    <contour>
      <point x="288" y="59" type="curve" smooth="yes"/>
      <point x="186" y="59"/>
      <point x="154" y="124"/>
      <point x="154" y="299" type="curve" smooth="yes"/>
      <point x="154" y="449"/>
      <point x="181" y="523"/>
      <point x="288" y="523" type="curve" smooth="yes"/>
      <point x="389" y="523"/>
      <point x="421" y="458"/>
      <point x="421" y="282" type="curve" smooth="yes"/>
      <point x="421" y="133"/>
      <point x="394" y="59"/>
    </contour>
    <contour>
      <point x="480" y="321" type="curve"/>
      <point x="457" y="326" type="line"/>
      <point x="428" y="304"/>
      <point x="415" y="300"/>
      <point x="394" y="300" type="curve" smooth="yes"/>
      <point x="355" y="300"/>
      <point x="254" y="335"/>
      <point x="188" y="335" type="curve" smooth="yes"/>
      <point x="141" y="335"/>
      <point x="94" y="310"/>
      <point x="94" y="234" type="curve"/>
      <point x="131" y="244" type="line"/>
      <point x="150" y="258"/>
      <point x="159" y="266"/>
      <point x="188" y="266" type="curve" smooth="yes"/>
      <point x="222" y="266"/>
      <point x="329" y="231"/>
      <point x="395" y="231" type="curve" smooth="yes"/>
      <point x="444" y="231"/>
      <point x="480" y="256"/>
    </contour>
  </outline>
</glyph>
<glyph name="Gheupturn-cy" format="2">
  <advance width="455"/>
  <unicode hex="0490"/>
  <outline>
    <contour>
      <point x="105" y="0" type="line"/>
      <point x="189" y="0" type="line"/>
      <point x="184" y="622" type="line"/>
      <point x="416" y="621" type="line"/>
      <point x="416" y="807" type="line"/>
      <point x="345" y="807" type="line"/>
      <point x="330" y="695" type="line"/>
      <point x="105" y="695" type="line"/>
    </contour>
  </outline>
</glyph>
<glyph name="gheupturn-cy" format="2">
  <advance width="439"/>
  <unicode hex="0491"/>
  <outline>
    <contour>
      <point x="301" y="531" type="line"/>
      <point x="389" y="530" type="line"/>
      <point x="389" y="681" type="line"/>
      <point x="327" y="681" type="line"/>
    </contour>
    <component base="ge-cy"/>
  </outline>
</glyph>
<glyph name="Ghestroke-cy" format="2">
  <advance width="585"/>
  <unicode hex="0492"/>
  <guideline x="474" y="510" angle="90" identifier="WDmOubb0KH"/>
  <outline>
    <contour>
      <point x="190" y="0" type="line"/>
      <point x="273" y="0" type="line"/>
      <point x="268" y="372" type="line"/>
      <point x="275" y="662" type="line"/>
      <point x="236" y="624" type="line"/>
      <point x="531" y="621" type="line"/>
      <point x="531" y="695" type="line"/>
      <point x="190" y="695" type="line"/>
    </contour>
    <contour>
      <point x="64" y="407" type="line"/>
      <point x="64" y="333" type="line"/>
      <point x="219" y="336" type="line"/>
      <point x="434" y="333" type="line"/>
      <point x="434" y="407" type="line"/>
    </contour>
  </outline>
</glyph>
<glyph name="Endescender-cy" format="2">
  <advance width="665"/>
  <unicode hex="04A2"/>
  <outline>
    <contour>
      <point x="536" y="-124" type="line"/>
      <point x="610" y="-124" type="line"/>
      <point x="610" y="74" type="line"/>
      <point x="513" y="74" type="line"/>
    </contour>
    <component base="En-cy"/>
  </outline>
</glyph>
<glyph name="endescender-cy" format="2">
  <advance width="585"/>
  <unicode hex="04A3"/>
  <outline>
    <contour>
      <point x="489" y="-136" type="line"/>
      <point x="553" y="-136" type="line"/>
      <point x="553" y="72" type="line"/>
      <point x="465" y="72" type="line"/>
    </contour>
    <component base="en-cy"/>
  </outline>
</glyph>
<glyph name="Ustraitstroke-cy" format="2">
  <advance width="506"/>
  <unicode hex="04B0"/>
  <outline>
    <contour>
      <point x="82" y="257" type="line"/>
      <point x="251" y="259" type="line"/>
      <point x="420" y="257" type="line"/>
      <point x="420" y="328" type="line"/>
      <point x="82" y="328" type="line"/>
    </contour>
    <component base="Y"/>
  </outline>
</glyph>
<glyph name="hadescender-cy" format="2">
  <advance width="491"/>
  <unicode hex="04B3"/>
  <outline>
    <contour>
      <point x="426" y="-136" type="line"/>
      <point x="490" y="-136" type="line"/>
      <point x="490" y="72" type="line"/>
      <point x="402" y="72" type="line"/>
    </contour>
    <component base="x"/>
  </outline>
</glyph>
<glyph name="Schwa-cy" format="2">
  <advance width="654"/>
  <unicode hex="04D8"/>
  <outline>
    <contour>
      <point x="70" y="617" type="curve"/>
      <point x="99" y="546" type="line"/>
      <point x="99" y="546"/>
      <point x="205" y="634"/>
      <point x="351" y="634" type="curve" smooth="yes"/>
      <point x="404" y="634"/>
      <point x="418" y="628"/>
      <point x="437" y="612" type="curve" smooth="yes"/>
      <point x="462" y="590"/>
      <point x="490" y="535"/>
      <point x="494" y="389" type="curve"/>
      <point x="73" y="391" type="line"/>
      <point x="73" y="343" type="line" smooth="yes"/>
      <point x="73" y="45"/>
      <point x="196" y="-14"/>
      <point x="328" y="-14" type="curve" smooth="yes"/>
      <point x="468" y="-14"/>
      <point x="584" y="55"/>
      <point x="584" y="349" type="curve" smooth="yes"/>
      <point x="584" y="614"/>
      <point x="491" y="710"/>
      <point x="333" y="710" type="curve" smooth="yes"/>
      <point x="186" y="710"/>
      <point x="70" y="617"/>
    </contour>
    <contour>
      <point x="161" y="317" type="curve"/>
      <point x="495" y="318" type="line"/>
      <point x="492" y="176"/>
      <point x="470" y="112"/>
      <point x="427" y="83" type="curve" smooth="yes"/>
      <point x="402" y="66"/>
      <point x="369" y="62"/>
      <point x="328" y="62" type="curve" smooth="yes"/>
      <point x="284" y="62"/>
      <point x="249" y="67"/>
      <point x="223" y="88" type="curve" smooth="yes"/>
      <point x="185" y="118"/>
      <point x="165" y="183"/>
    </contour>
  </outline>
</glyph>
<glyph name="schwa-cy" format="2">
  <advance width="571"/>
  <unicode hex="04D9"/>
  <outline>
    <contour>
      <point x="267" y="596" type="curve" smooth="yes"/>
      <point x="172" y="596"/>
      <point x="81" y="567"/>
      <point x="55" y="556" type="curve"/>
      <point x="79" y="487" type="line"/>
      <point x="110" y="496"/>
      <point x="207" y="524"/>
      <point x="285" y="524" type="curve" smooth="yes"/>
      <point x="324" y="524"/>
      <point x="350" y="516"/>
      <point x="368" y="500" type="curve" smooth="yes"/>
      <point x="384" y="485"/>
      <point x="419" y="442"/>
      <point x="410" y="309" type="curve"/>
      <point x="449" y="324" type="line"/>
      <point x="65" y="324" type="line"/>
      <point x="65" y="261" type="line" smooth="yes"/>
      <point x="65" y="57"/>
      <point x="139" y="-14"/>
      <point x="269" y="-14" type="curve" smooth="yes"/>
      <point x="399" y="-14"/>
      <point x="499" y="57"/>
      <point x="499" y="290" type="curve" smooth="yes"/>
      <point x="499" y="515"/>
      <point x="406" y="596"/>
    </contour>
    <contour>
      <point x="410" y="294" type="line"/>
      <point x="414" y="197"/>
      <point x="404" y="131"/>
      <point x="379" y="98" type="curve" smooth="yes"/>
      <point x="361" y="74"/>
      <point x="331" y="58"/>
      <point x="263" y="58" type="curve" smooth="yes"/>
      <point x="198" y="58"/>
      <point x="183" y="73"/>
      <point x="173" y="88" type="curve" smooth="yes"/>
      <point x="151" y="124"/>
      <point x="149" y="193"/>
      <point x="150" y="288" type="curve"/>
      <point x="112" y="251" type="line"/>
      <point x="449" y="258" type="line"/>
    </contour>
  </outline>
</glyph>
<glyph name="quoteright" format="2">
  <advance width="226"/>
  <unicode hex="2019"/>
  <outline>
    <contour>
      <point x="98" y="466" type="line"/>
      <point x="134" y="498"/>
      <point x="166" y="552"/>
      <point x="167" y="646" type="curve" smooth="yes"/>
      <point x="167" y="666"/>
      <point x="166" y="688"/>
      <point x="163" y="713" type="curve"/>
      <point x="84" y="713" type="line"/>
      <point x="84" y="713"/>
      <point x="91" y="624"/>
      <point x="91" y="596" type="curve" smooth="yes"/>
      <point x="91" y="550"/>
      <point x="81" y="525"/>
      <point x="59" y="498" type="curve"/>
    </contour>
  </outline>
</glyph>
<glyph name="quotedblleft" format="2">
  <advance width="366"/>
  <unicode hex="201C"/>
  <outline>
    <contour>
      <point x="63" y="481" type="curve"/>
      <point x="142" y="481" type="line"/>
      <point x="142" y="481"/>
      <point x="136" y="544"/>
      <point x="136" y="598" type="curve" smooth="yes"/>
      <point x="136" y="644"/>
      <point x="146" y="669"/>
      <point x="167" y="696" type="curve"/>
      <point x="128" y="728" type="line"/>
      <point x="94" y="697"/>
      <point x="60" y="643"/>
      <point x="59" y="548" type="curve" smooth="yes"/>
      <point x="59" y="528"/>
      <point x="60" y="506"/>
    </contour>
    <contour>
      <point x="203" y="481" type="curve"/>
      <point x="282" y="481" type="line"/>
      <point x="282" y="481"/>
      <point x="276" y="544"/>
      <point x="276" y="598" type="curve" smooth="yes"/>
      <point x="276" y="644"/>
      <point x="286" y="669"/>
      <point x="307" y="696" type="curve"/>
      <point x="268" y="728" type="line"/>
      <point x="234" y="697"/>
      <point x="200" y="643"/>
      <point x="199" y="548" type="curve" smooth="yes"/>
      <point x="199" y="528"/>
      <point x="200" y="506"/>
    </contour>
  </outline>
</glyph>
<glyph name="quotedblbase" format="2">
  <advance width="404"/>
  <unicode hex="201E"/>
  <outline>
    <contour>
      <point x="241" y="-115" type="line"/>
      <point x="275" y="-84"/>
      <point x="309" y="-30"/>
      <point x="310" y="65" type="curve" smooth="yes"/>
      <point x="310" y="85"/>
      <point x="309" y="107"/>
      <point x="306" y="132" type="curve"/>
      <point x="227" y="132" type="line"/>
      <point x="227" y="132"/>
      <point x="233" y="69"/>
      <point x="233" y="15" type="curve" smooth="yes"/>
      <point x="233" y="-31"/>
      <point x="223" y="-56"/>
      <point x="202" y="-83" type="curve"/>
    </contour>
    <contour>
      <point x="101" y="-115" type="line"/>
      <point x="135" y="-84"/>
      <point x="169" y="-30"/>
      <point x="170" y="65" type="curve" smooth="yes"/>
      <point x="170" y="85"/>
      <point x="169" y="107"/>
      <point x="166" y="132" type="curve"/>
      <point x="87" y="132" type="line"/>
      <point x="87" y="132"/>
      <point x="93" y="69"/>
      <point x="93" y="15" type="curve" smooth="yes"/>
      <point x="93" y="-31"/>
      <point x="83" y="-56"/>
      <point x="62" y="-83" type="curve"/>
    </contour>
  </outline>
</glyph>
<glyph name="guilsinglleft" format="2">
  <advance width="282"/>
  <unicode hex="2039"/>
  <outline>
    <contour>
      <point x="181" y="88" type="line"/>
      <point x="243" y="127" type="line"/>
      <point x="121" y="327" type="line"/>
      <point x="121" y="334" type="line"/>
      <point x="243" y="534" type="line"/>
      <point x="181" y="572" type="line"/>
      <point x="40" y="330" type="line"/>
    </contour>
  </outline>
</glyph>
<glyph name="fraction" format="2">
  <advance width="366"/>
  <unicode hex="2044"/>
  <outline>
    <contour>
      <point x="-25" y="-9" type="line"/>
      <point x="50" y="-9" type="line"/>
      <point x="214" y="351" type="line"/>
      <point x="391" y="733" type="line"/>
      <point x="317" y="733" type="line"/>
      <point x="161" y="382" type="line"/>
    </contour>
  </outline>
</glyph>
<glyph name="rightArrow" format="2">
  <advance width="885"/>
  <unicode hex="2192"/>
  <outline>
    <contour>
      <point x="780" y="0" type="line"/>
      <point x="780" y="695" type="line"/>
      <point x="696" y="695" type="line"/>
      <point x="699" y="136" type="line"/>
      <point x="189" y="709" type="line"/>
      <point x="116" y="642" type="line"/>
      <point x="642" y="80" type="line"/>
      <point x="85" y="84" type="line"/>
      <point x="85" y="0" type="line"/>
    </contour>
  </outline>
</glyph>
<glyph name="brevecomb.case.001" format="2">
  <outline>
    <contour>
      <point x="139" y="739" type="curve" smooth="yes"/>
      <point x="203" y="739"/>
      <point x="273" y="779"/>
      <point x="278" y="869" type="curve"/>
      <point x="221" y="874" type="line"/>
      <point x="216" y="825"/>
      <point x="180" y="805"/>
      <point x="139" y="805" type="curve" smooth="yes"/>
      <point x="98" y="805"/>
      <point x="62" y="825"/>
      <point x="57" y="874" type="curve"/>
      <point x="0" y="869" type="line"/>
      <point x="4" y="779"/>
      <point x="75" y="739"/>
    </contour>
  </outline>
</glyph>
<glyph name="caroncmbalt.case" format="2">
  <outline>
    <contour>
      <point x="47" y="496.0" type="line"/>
      <point x="100" y="496.0" type="line"/>
      <point x="118" y="695.0" type="line"/>
      <point x="32" y="695.0" type="line"/>
    </contour>
  </outline>
</glyph>
<glyph name="foursuperior" format="2">
  <advance width="352"/>
  <outline>
    <contour>
      <point x="218" y="298" type="line"/>
      <point x="283" y="298" type="line"/>
      <point x="283" y="380" type="line"/>
      <point x="320" y="380" type="line"/>
      <point x="320" y="440" type="line"/>
      <point x="283" y="439" type="line"/>
      <point x="283" y="591" type="line"/>
      <point x="231" y="591" type="line"/>
      <point x="220" y="439" type="line"/>
      <point x="104" y="436" type="line"/>
      <point x="104" y="438" type="line"/>
      <point x="198" y="697" type="line"/>
      <point x="137" y="704" type="line"/>
      <point x="42" y="432" type="line"/>
      <point x="42" y="380" type="line"/>
      <point x="220" y="380" type="line"/>
    </contour>
  </outline>
</glyph>
<glyph name="tildecomb.case" format="2">
  <outline>
    <contour>
      <point x="274" y="746" type="curve" smooth="yes"/>
      <point x="320" y="746"/>
      <point x="346" y="772"/>
      <point x="346" y="847" type="curve"/>
      <point x="293" y="854" type="line"/>
      <point x="293" y="854"/>
      <point x="280" y="811"/>
      <point x="267" y="811" type="curve" smooth="yes"/>
      <point x="247" y="811"/>
      <point x="118" y="857"/>
      <point x="73" y="857" type="curve" smooth="yes"/>
      <point x="27" y="857"/>
      <point x="0" y="832"/>
      <point x="0" y="756" type="curve"/>
      <point x="52" y="750" type="line"/>
      <point x="52" y="750"/>
      <point x="66" y="794"/>
      <point x="79" y="794" type="curve" smooth="yes"/>
      <point x="98" y="794"/>
      <point x="230" y="746"/>
    </contour>
  </outline>
</glyph>
